<svg height="262.17578pt" viewBox="0 0 192.93018 262.17579" width="192.93018pt" xmlns="http://www.w3.org/2000/svg"><g transform="translate(-41.65625 -74.492188)"><path d="m105.95313 246.02344h1.46093c1.88282 0 2.35547-1.2461 2.4336-1.89453.0859-.6836-.1875-1.86719-1.96875-1.86719h-1.46485zm-1.5625-5.89453h3.78125c1.41796 0 2.26953.26953 2.89453.83203.63281.5664 1.26172 1.5664 1.08593 2.98047-.10156.8164-.55468 2.09765-1.54687 2.94921-.82031.69532-1.53906.86719-2.17188 1.01954l2.78907 4.54296h-2.76563l-2.6875-4.71093h-.0312l-.57812 4.71093h-2.28125zm0 0" fill="#212121"/><path d="m116.88672 237.69922 4.01953-2.21875.68359 1.75-4.04296 2zm-1.63281 2.42969h6.6289l-.26172 2.13281h-4.34375l-.37109 3.01172h4.16406l-.26172 2.13281h-4.16406l-.35937 2.91797h4.34765l-.26172 2.1289h-6.6289zm0 0" fill="#212121"/><path d="m128.96875 246.17578h8.03906l-.0312.26563c-.43359 3.51171-3.84765 6.26171-7.29687 6.26171-3.52735 0-6.28906-2.71484-5.83594-6.41406.44922-3.6289 3.86719-6.41015 7.34766-6.41015 3.09375 0 5.08593 2.09765 5.5 3.86328h-2.73047c-.42969-.81641-1.44922-1.73047-3.08203-1.73047-2.78125 0-4.51953 2.36328-4.75391 4.29687-.23437 1.88282.89063 4.26172 3.82031 4.26172 1.51563 0 3.03125-.83203 3.92188-2.26562h-5.16016zm0 0" fill="#212121"/><path d="m140.58594 240.12891h2.27734l-1.51172 12.32421h-2.28125zm0 0" fill="#212121"/><path d="m151.00781 250.57422c2.35156 0 4.41016-1.98438 4.69141-4.26953.28906-2.36328-1.32422-4.29297-3.64063-4.29297-2.3164 0-4.39843 1.92969-4.6914 4.29297-.27735 2.28515 1.29297 4.26953 3.64062 4.26953m1.31641-10.69531c3.49609 0 6.10156 2.79687 5.65234 6.44531-.43359 3.53125-3.67969 6.3789-7.23047 6.3789-3.54687 0-6.09375-2.84765-5.66015-6.3789.44922-3.64844 3.73828-6.44531 7.23828-6.44531" fill="#212121"/><path d="m160.99219 240.08984h2.55468l3.92969 8.81641h.0391l1.08204-8.81641h2.24218l-1.48828 12.1211h-2.50781l-3.98047-8.8125h-.0312l-1.08203 8.8125h-2.24609zm0 0" fill="#212121"/><path d="m45.390625 253.63281h6.40625l9.863281 22.10547h.08203l2.714843-22.10547h5.628907l-3.734376 30.40235h-6.28906l-9.980469-22.10157h-.082031l-2.714844 22.10157h-5.628906zm0 0" fill="#212121"/><path d="m91.128906 272.51953c.515625-4.21875-2.351562-7.34766-5.820312-7.34766-2.882813 0-7.101563 2.46485-7.699219 7.30469-.535156 4.38281 2.414063 7.21875 5.917969 7.21875 4.046875 0 7.148437-3.5039 7.601562-7.17578m-19.074218-.043c.863281-7.01172 7.242187-12.39453 13.878906-12.39453 6.554687 0 11.628906 5.21484 10.757812 12.30859-.929687 7.59375-7.363281 12.39454-13.789062 12.39454-6.886719 0-11.660156-5.67579-10.847656-12.3086" fill="#212121"/><path d="m122.26953 260.87109-2.84375 23.16407h-5.08594l.28516-2.33985h-.0859c-1.07031 1.25391-2.80078 3.08985-6.34375 3.08985-4.21875 0-6.33984-2.08594-7.3125-3.67188-1.410154-2.46484-.949216-6.21875-.71484-8.13672l1.48437-12.10547h5.55469l-1.44922 11.8125c-.23437 1.87891-.86328 7.01172 3.97657 7.01172 3.50781 0 5.08203-3.30078 5.53125-6.96875l1.45703-11.85547zm0 0" fill="#212121"/><path d="m125.14844 260.87109h6.0039l3.70703 15.35938h.1211l7.14453-15.35938h6.09375l-12.23047 23.16407h-4.33984zm0 0" fill="#212121"/><path d="m166.58203 270.47266c-.17187-3.71485-2.83984-5.42579-5.59766-5.42579-2.04296 0-5.64453 1.125-7.21484 5.42579zm-13.19531 4.46484c.0664 1.50391 1.83984 4.75781 5.80078 4.75781 2.46094 0 4.42578-1.04297 5.70703-2.96484h5.84375c-1.84766 4.17187-6.75 8.05469-12.17578 8.05469-6.88672 0-11.55078-5.50782-10.72266-12.26563.80469-6.55469 6.59375-12.56641 13.73047-12.56641 7.34375 0 11.19922 6.34375 10.48438 12.1875-.13672 1.08594-.42188 2.04688-.67969 2.79688zm0 0" fill="#212121"/><path d="m178.30469 253.15234h5.55078l-3.78906 30.88282h-5.55079zm0 0" fill="#212121"/><path d="m188.73828 253.15234h5.55078l-3.78906 30.88282h-5.55078zm0 0" fill="#212121"/><path d="m214.57422 270.47266c-.16797-3.71485-2.84375-5.42579-5.59375-5.42579-2.04297 0-5.64844 1.125-7.21875 5.42579zm-13.19531 4.46484c.0703 1.50391 1.83984 4.75781 5.80468 4.75781 2.46094 0 4.42578-1.04297 5.70703-2.96484h5.83985c-1.84766 4.17187-6.7461 8.05469-12.17188 8.05469-6.88672 0-11.55468-5.50782-10.72265-12.26563.80078-6.55469 6.58984-12.56641 13.73047-12.56641 7.34375 0 11.19921 6.34375 10.48046 12.1875-.13671 1.08594-.41796 2.04688-.67578 2.79688zm0 0" fill="#212121"/><path d="m183.90625 295c-.22656 1.84375-1.89844 3.33203-3.73828 3.33203-1.83985 0-3.14844-1.48828-2.92578-3.33203.22656-1.83984 1.89843-3.32813 3.74218-3.32813 1.83594 0 3.14844 1.48829 2.92188 3.32813" fill="#212121"/><path d="m54.65625 311.29687h6.808594l-2.15625-9.84375h-.08203zm3.515625-18.21093h4.285156l8.480469 32.08593h-6.046875l-2.148437-8.27734h-10.617188l-4.183594 8.27734h-6.050781zm0 0" fill="#212121"/><path d="m85.316406 320.66406c3.765625 0 6.855469-3.64453 7.332032-7.5.460937-3.77344-1.59375-7.58984-5.519532-7.58984-3.808594 0-6.925781 3.51172-7.410156 7.46094-.59375 4.85546 2.269531 7.6289 5.597656 7.6289m13.859375-19.55469-4.425781 35.5586h-5.328125l1.753906-13.79688c-2.984375 3.07813-6.511719 3.07813-7.152343 3.07813-6.730469 0-10.429688-6.41406-9.617188-13.04688.847656-6.89453 6.71875-12.61718 12.808594-12.61718 4.53125 0 6.007812 2.64453 6.617187 3.85937h.07813l.375-3.03516zm0 0" fill="#212121"/><path d="m123.25 301.10937-2.95703 24.0625h-4.88281l.29687-2.42968h-.0781c-1.04297 1.30078-2.72266 3.20703-6.125 3.20703-4.04688 0-6.0625-2.16406-6.98438-3.81641-1.32812-2.55469-.84765-6.45703-.60547-8.44922l1.54297-12.57422h5.33203l-1.50781 12.26954c-.23828 1.95312-.89453 7.28515 3.75391 7.28515 3.36718 0 4.91015-3.42969 5.3789-7.24219l1.50782-12.3125zm0 0" fill="#212121"/><path d="m138.71875 306.22656h-2.60547l.625-5.11719h2.60938l.98437-8.02343h5.32422l-.98438 8.02343h3.20313l-.62891 5.11719h-3.19922l-2.32812 18.94531h-5.32422zm0 0" fill="#212121"/><path d="m160.78906 305.57422c-4.36719 0-7.10937 4.07812-7.55469 7.67969-.5 4.07031 1.89454 7.41015 5.70313 7.41015 3.68359 0 6.875-3.12109 7.42187-7.58594.61329-4.98828-2.39843-7.5039-5.57031-7.5039m9.13672 19.59765h-4.89062l.36718-2.99609c-1.94922 2.17188-5.42968 3.77344-8.23828 3.77344-5.72656 0-10.21094-4.94141-9.23047-12.96094.91016-7.36719 6.53125-12.70312 12.70313-12.70312 4.53125 0 6.78125 3.51171 6.89844 3.85937h.082l.37109-3.03516h4.89063zm0 0" fill="#212121"/><path d="m187.33984 301.10937h4.92578l-.2539 2.08204c.99609-.91407 3.08203-2.90625 6.44531-2.90625 1.92578 0 4.73828.91015 6.28516 3.33984 1.71484 2.64062 1.22265 6.67578.99218 8.54297l-1.59765 13.0039h-5.32422l1.45312-11.8789c.25-1.9961.94922-7.71875-3.53906-7.71875-.96094 0-2.74609.51953-3.90625 2.125-1.14453 1.47265-1.45312 3.98437-1.69922 6.02734l-1.40625 11.44531h-5.32812zm0 0" fill="#212121"/><path d="m227.38281 311.08203c-.1289-3.85937-2.67187-5.63672-5.3164-5.63672-1.96485 0-5.4336 1.16797-6.98438 5.63672zm-12.71094 4.64063c.0469 1.55859 1.71485 4.9414 5.52344 4.9414 2.36719 0 4.26172-1.08594 5.50391-3.07812h5.61328c-1.8125 4.33593-6.55859 8.36328-11.76172 8.36328-6.61328 0-11.03906-5.72266-10.17969-12.74219.83594-6.80859 6.44922-13.05469 13.30078-13.05469 7.05469 0 10.69141 6.59375 9.94532 12.66407-.13282 1.125-.41797 2.12109-.67578 2.90625zm0 0" fill="#212121"/><path d="m125.05469 325.16016h5.32812l2.95313-24.0625h-5.32813zm0 0" fill="#212121"/><path d="m135.09766 294.66797c-.23829 1.94922-2.00782 3.52344-3.95313 3.52344s-3.32812-1.57422-3.08984-3.52344c.23828-1.94531 2.01172-3.51953 3.95312-3.51953 1.94531 0 3.33203 1.57422 3.08985 3.51953" fill="#212121"/><path d="m174.23437 325.16016h5.33204l2.94921-24.0625h-5.32421zm0 0" fill="#212121"/><path d="m223.53125 272.39844c.14453-1.17188 1.22656-2.12891 2.40625-2.12891h6.75c1.18359 0 2.02734.95703 1.88281 2.12891l-.0508.42578c-.14453 1.17187-1.22656 2.1289-2.40625 2.1289h-6.75391c-1.17968 0-2.02343-.95703-1.88281-2.1289zm0 0" fill="#212121"/><path d="m202.73437 148.19141v-66.824222c0-3.792969-3.08203-6.875-6.875-6.875h-114.824214c-3.785156 0-6.863281 3.078124-6.863281 6.859374v66.832028c-.01953.59766-.05469 2.45703.140625 5.28516.210938 2.97266.730469 7.66016 2.019531 13.13281 1.230469 5.21485 2.949219 10.28906 5.113281 15.08594.390626.85937.789063 1.71094 1.199219 2.54687 1.179688 2.38282 2.507813 4.7461 3.945313 7.01563 2.667968 4.23047 5.746094 8.18359 9.148437 11.75.671875.70703 1.339844 1.39453 2.007813 2.06641 2.148437 2.16406 4.339846 4.22656 6.515626 6.13671 1.92578 1.69532 3.91406 3.33204 5.91016 4.86719 1.49218 1.14453 2.98828 2.23438 4.45703 3.25 11.15234 7.67969 19.66406 10.14453 22.0039 10.71875l1.83985.36719 1.79687-.37109c1.66016-.40235 6.20313-1.69141 12.46094-4.94922 4.29297-2.23047 8.64844-4.9961 12.94922-8.21875 5.28125-3.95313 10.49218-8.6211 15.48828-13.86328 5.25-5.50782 9.65625-11.82032 13.09375-18.76954 2.73828-5.53515 4.86328-11.46875 6.3164-17.63281 1.28907-5.47265 1.8086-10.16015 2.01563-13.13281.20312-2.89844.16016-4.75.14062-5.27734" fill="#c2022e"/><g fill="#fff"><path d="m117.25 196.07812c-1.21875-4.23046-2.48047-8.60156-2.41016-13.25.043-3.07421 1.00391-5.96875 1.9336-8.77343.91015-2.73828 1.85156-5.57032 1.95703-8.59766.15625-4.5625-.92188-7.81641-1.96484-10.96094-.83204-2.51562-1.69532-5.11718-1.92579-8.39843-.33203-4.58594.9375-9.03907 2.16797-13.34375 1.15235-4.03516 2.24219-7.84766 2.11328-11.75-.10546-2.91797-1.13671-5.71875-2.13281-8.42969-.94531-2.5625-1.92187-5.21094-2.15234-8.00781-.4375-5.269535.92969-9.468754 2.2539-13.531254.98438-3.019531 1.91797-5.878906 2.13282-9.09375h73.24218c1.57813 0 2.86328 1.285156 2.86328 2.863282v63.578122c.0117.28516.25782 7.10547-1.96093 16.51953-1.32422 5.61719-3.25782 11.01172-5.74219 16.03516-3.09766 6.26562-7.07031 11.96484-11.80469 16.93359-4.71094 4.94141-9.60156 9.32422-14.54297 13.02735-3.97656 2.97656-7.98047 5.51953-11.91015 7.5625-5.63672 2.93359-9.45703 4.01172-10.91407 4.35547-1.47265-.34766-5.32031-1.4375-10.97656-4.38672-2.91797-1.52344-5.89453-3.33203-8.84765-5.375.52734-1.5.8125-2.85938.87109-4.14453.20313-4.32813-.98828-8.46094-2.25-12.83204m-12.34766-20.46484c.86719-2.51562 1.76563-5.11328 1.96094-7.73437.41797-5.58594-.80859-9.33594-1.99219-12.96094-.91406-2.78906-1.77343-5.42578-1.90234-8.80469-.16016-4.41797 1.05859-8.78125 2.23828-12.99609 1.26563-4.53516 2.46094-8.8125 2.05078-13.09766-.26562-2.77344-1.25781-5.42187-2.21484-7.98828-1.02734-2.73828-1.99609-5.32812-2.07422-7.92578-.0859-2.98828.93359-6.382814 2.00781-9.976564 1.17188-3.914062 2.38282-7.957031 2.46875-12.1875h5.52344c-.12891 3.160156-1.08594 6.335938-2.09766 9.6875-1.33984 4.445313-2.72265 9.046874-2.23828 13.972654.26172 2.64844 1.25391 5.29688 2.21094 7.85547.99609 2.66016 1.9375 5.17188 2.06641 7.57813.21093 3.82422-.88672 7.57421-2.04688 11.54296-1.37109 4.6875-2.79297 9.53907-2.23047 15.03516.28516 2.76563 1.16016 5.28906 2.01172 7.73047.91016 2.60937 1.76563 5.07422 1.87891 7.69531.16406 3.80469-.89453 7.12891-1.92188 10.34766-.98828 3.08984-2.0039 6.28125-1.96875 9.91797.0352 4.42968 1.29688 8.8164 2.51563 13.05859 1.30078 4.52734 2.53125 8.8125 2.17578 12.74609-1.80469-1.43359-3.60938-2.96093-5.36328-4.54687l-.66797-.61328c-.48828-2.92578-1.30859-5.80469-2.10938-8.58985-1.17187-4.09375-2.27734-7.95703-2.21484-11.5625.0508-2.72265 1.00781-5.5 1.93359-8.18359m-20.378902-67.59765v.004c.265624 2.64453 1.253906 5.28906 2.210937 7.84375.996094 2.66016 1.9375 5.17188 2.070313 7.58594.210937 3.82422-.886719 7.57422-2.050782 11.54687-1.375 4.6875-2.792968 9.53516-2.230468 15.02735.28125 2.76562 1.160156 5.28906 2.011718 7.72656.910156 2.61328 1.769532 5.08203 1.882813 7.71094.152343 3.51953-.746094 6.63281-1.695313 9.63281-1.300781-3.32813-2.363281-6.73438-3.167968-10.14063-2.238282-9.46875-1.976563-16.55078-1.972657-16.63671v-63.511822c0-1.578126 1.285157-2.863282 2.863281-2.863282h4.359376v.0039c.4375 3.945313-.761719 7.90625-2.03125 12.101563-1.34375 4.449219-2.734376 9.046871-2.25 13.968751m16.535152 12.55468c.38282 3.86328-.79296 8.17969-2.039059 12.7461-1.207031 4.42968-2.457031 9.0039-2.242187 13.3125.128906 2.69531 1.003906 5.3125 1.925781 8.08203.851563 2.54687 1.730465 5.17968 1.964845 7.86328.33984 3.88672-.808595 7.79297-1.925782 11.57422-.980469 3.3164-1.992188 6.75-1.964844 10.125.02344 3.62109 1.078125 7.47265 2.167968 11.23047-2.828124-3.26563-5.355468-6.81641-7.523437-10.57813-.167969-.28906-.328125-.57422-.484375-.86328l-.121094-.21875c.253906-2.55078 1.066406-5.00391 1.851563-7.37891.910156-2.74218 1.847656-5.57422 1.957031-8.60156.15625-4.55078-.921875-7.79687-1.960938-10.94141-.835937-2.51562-1.703124-5.12109-1.929687-8.41015-.332031-4.58594.9375-9.03516 2.164063-13.33594 1.152343-4.03906 2.242187-7.85547 2.109374-11.76172-.101562-2.91797-1.132812-5.71875-2.132812-8.42968-.941406-2.5625-1.914062-5.20704-2.144531-8.00391-.441407-5.26563.929687-9.464841 2.257812-13.523435 1.222657-3.753906 2.382813-7.300781 2.15625-11.515625h6.304689c.11719 3.683594-.98828 6.800782-2.160158 10.097656-1.273437 3.578126-2.589843 7.28125-2.511718 12.082024.04297 2.77344 1 5.35157 2.015625 8.07813.960937 2.59375 1.957031 5.27734 2.265621 8.37109m98.22266 27.70313v-66.667961c0-1.992188-1.62109-3.613281-3.61328-3.613281h-114.441408c-1.984374 0-3.597656 1.613281-3.597656 3.597656v66.640626c-.0039.0742-.08203 1.92578.132813 5.00781.195312 2.83984.691406 7.32031 1.933593 12.57031 1.179688 5 2.824219 9.85938 4.890626 14.44141.371093.82422.753906 1.64062 1.152343 2.44141 1.128907 2.28125 2.394531 4.53515 3.761719 6.69921 2.546875 4.03516 5.484375 7.80469 8.726562 11.20704.65625.6875 1.308594 1.35546 1.957028 2.01171 2.09375 2.10547 4.22266 4.11329 6.33204 5.96094 1.86718 1.64453 3.79296 3.23047 5.72656 4.71875 1.4375 1.10547 2.88672 2.16016 4.30469 3.14063 10.66796 7.34765 18.67968 9.66797 20.89843 10.21093l1.01953.19922 1.03516-.21093c1.53906-.375 5.76172-1.57422 11.69141-4.66016 4.12109-2.14063 8.30859-4.80469 12.45703-7.91016 5.11328-3.83203 10.17187-8.35937 15.03125-13.46093 5.01172-5.25391 9.21093-11.27735 12.49218-17.90625 2.61719-5.29297 4.65235-10.97266 6.04297-16.88282 1.23828-5.25 1.73438-9.73047 1.9336-12.57031.20312-2.9375.14062-4.73437.13281-4.96484"/><path d="m159.70703 151.65625c-.008-.0156-.0117-.0273-.0156-.0391-.082-.14844-.16407-.21875-.20704-.23828-.44921-.32813-1.30078-.0977-1.38281.625-.0703.69531.47656 1.15234 1.12891 1.21093.35547.0352.46484-.29297.5039-.63672v.004c.043-.26172.0508-.45703.0391-.60937 0-.008-.0352-.2461-.0664-.31641"/><path d="m158 146.46484c.19531 1.12891.63281 4.04297 1.72656 4.36328.58985-1.39062-.29297-3.8164-1.72656-4.36328"/><path d="m136.10547 107.44531c.41406-.10156 1.00781-.64453.72265-1.11328-.39062-.64453-1.12109-.69922-1.82031-.80469.40235.60157-.0508 2.1836 1.09766 1.91797"/><path d="m128.05078 109.16797c.25391-1.66016-1.84765-.53906-2.23047.22656.57032-.0352 2.08985.59375 2.23047-.22656"/><path d="m132.25 106.53125c.72266-1.39062-1.34375-1.51953-2.03516-1.10156.29688.16797 1.77344 1.58984 2.03516 1.10156"/><path d="m128.28906 118.33594c.38672 2.47656 2.41797-.0547 0 0"/><path d="m140 131.85547c.86719-.95703 1.59766-1.66016 2.72266-2.33985-1.4961-1.03125-4.03125-2.46874-3.09766-4.76171.42187-1.04688 1.48047.39062 2.26953.46484 1.09766.10156 2.42188.12891 3.44922-.32031-.3125-.40235-1.32813-.58594-1.77734-1.02344-.85938-.83203-1.13672-1.89844-.78516-3.03906.18359-.57813-2.78516-2.38672-3.42188-3.01953-1.41406-1.37891-3.50781-3.375-3.21484-5.55469.082-.56641.17578-1.49219.64063-1.88672.23046-.19531.41796-2.46484.30468-2.69531-.65234.32422-1.47656.62109-2.05859-.0156-.72266-.76562-.57813.76953-.50781.97657.30078.8789.73047 1.65234.80859 2.59375.0547.83593-.87891 1.77343-.87891.60937-.65234-.71094-1.10937-1.42187-1.60156-2.25391-.1875-.3125.1211-2.625-.50781-2.17187-.38281.28125-.92969-.0273-1.24609.29687-.30079.29297-.043.89063-.1875 1.26954-.30469.90234-1.58594.12109-2.02344-.1211-.24219 1.11719-1.65234 1.4961-.67188 2.66797 1.01953 1.21094 2.64453.80078 3.66797 2.07422 1.08985 1.37891-.28906 2.87109-1.64062 3.13281-.32422.0625-.66407.70703-.39453 1 .5664.64063.36718 1.6211.0312 2.28906.63281.25391 1.47265.0508 2.01953-.29687.74218-.46875.33593-1.09766 1.24609-1.10547.12891-.004.66797 1.625.74219 1.78516.5 1.04297.3789 1.86328-.19141 2.85547-.72265 1.23437.72656 3.12109.5 4.49218-.32422 1.88281-1.33984 1.66797-2.69922.74219-.35937.28906.89844 1.07422 1.08203 1.125 1.34766.375 2.125-.41406 2.42969-1.52344.29688-1.05859.0352-2.13672.48438-3.21484.55859-1.31641 1.64062-.375 1.13672.11719-1.25391 1.25 1.88281 3.39843 1.51562 4.9414-.14062.55469 1.35938 1.875 1.85547 1.91016"/><path d="m128.13672 143.45312c-.57031-.92968-3.01953.16407-3.20703 1.03516.3164 0 4.12109.49219 3.20703-1.03516"/><path d="m127.19922 151.80078c-.14844-.74219-2.32813.75-1.66016 1.98047.0156.004.0742.0703.0469.0937.50781-.48047 1.79297-1.19141 1.61328-2.07422"/><path d="m133.66406 153.97656c-.4414.98047-2.01562.71094-2.36328 1.375.80859 1.72656 3.79297-1.39062 2.36328-1.375"/><path d="m123.80469 148.85156c.34375-.17969 2.3125-.0508 1.32812-1.10937-.49609.17187-1.51953.32812-1.32812 1.10937"/><path d="m144.11328 146.17187c.34766-.0859 2.30859-.96875 2.46875-.32812.12891.44922-.16016 1.01562.58203 1.05859.34766.0234 1.09766-.17187 1.16406-.61328.0703-.54297.78516.27735.90235.32813.57031.23828 1.74609-.0352 2.05859-.60547-1.11328-.24219-1.71875-1.10156-1.16797-2.2461.47266-.99218.67969-.67968.0703-1.73437-.36329-.63672-.55079-1.33203-.78516-2.01953-1.26172 2.23437-2.59375 3.54297-5.26953 4.02734-1.78125.31641-5.85547-1.23437-4.5625-3.6914.45703-.86329 1.76953-1.56641 2.76562-1.80079.0117-.004.0273-.008.0391-.0117.0937-.0195.1875-.043.27734-.0547 1.39453-.19922-.22656 1.25781-.27344 1.47656-.27734 1.42578 2.04688.23828 2.41797-.10156.41797-.39063.26563-1.14453.17969-1.63672-.12891-.74609-.17578-1.53125-.34766-2.26563-.32422-.0234-.59765.21485-.84765.38282-.85938.58984-1.76954 1.10547-2.625 1.70312-1.14063.79688-2.23047 1.66406-3.26563 2.58985-.79687.70703-1.5625 1.45312-2.29297 2.22656-.89844.95703-3.11719 3.27344-4.70703 2.30469-.42969-.25391-1.07422-1.83204-1.36719-1.83204-1.17968-.0234-.54297.51563-1.03515 1.30469-.2461.39844-.73047.47266-1.09766.66797.15625.46875 1.16406 1.04297.49219 1.40625-.625.32031-1.61328.29297-2.30078.45703.24609.51172.54297 1.04688.24609 1.61328-.19922.39453.58985.69141.78516 1.03516.19922.40625.0547.79297.44531 1.02344.58203.32812.88281.8789.78906 1.5664-.21093 1.60547 2.11719-1.08984 2.19531-1.16797.65625-.66406 3.61719-1.36718 2.90235.42969-.22656.57813-.73438 1-.28125 1.65625.83984-.0664 1.08203-.10937 1.83203.30078 1.57031-.9375.77734-1.40234.29687-2.8164-.16406-.50391 1.8711-.48047 2.35157-1.10938 1.07812-1.41406 1.10156.41016 1.19531 1.35938.59375-.0469.83594-.75391.94531-1.22266.2461-.97656 1.66406.75 1.60547-.1875-.0391-.5625.0586-1.11719.40625-1.58203.39453-.53516.83594.51562.76563.83203-.14844.75391 1.94531.69531 2.55468.90625.0195.004.043.004.0625.008.19141-.61718-1.5039-3.41406-.57031-3.63672"/><path d="m134.45703 167.75c2.65625-1.37109-.39844-2.02734-1.28516-.66406.54297-.008.94141.27734 1.28516.66406"/><path d="m141.76562 177.92969c.0312-1.73438-1.44531-.0312-1.88281.30859.36328.16406 1.86328.53516 1.88281-.30859"/><path d="m131.02344 171.61719c.40234-.27735 2.5039-.84766 1.60547-1.46875-.96875-.66407-1.57422.7539-1.60547 1.46875"/><path d="m133.54297 176.60937c.12109-.48437.51953-.72265.91797-.93359-.64844-2.01172-2.03516.32422-.91797.93359"/><path d="m142.45703 176.21484c1.07422-1.02734.46875-1.03125-.51562-1.84765-.64844-.5625-.83594-1.21094-.0977-1.7461.64453-.46093 2.03516.75391 2.83984.66016.67578-.0859 1.78516-.35938 2.01563-1.12109.082-.28125.5-2.90235 1.16015-1.88282.53907.82813.004 1.61719 1.19141 2.28907.71875.39453 2.15625.90234 2.95703.57031-.97265-.70313-2.48047-1.48828-1.23437-2.69141.42187-.39844.0352-1.34765.28906-1.89062.37109-.7461 1.22266-.83203.71484-1.52735-.40625-.55859.29297-1.10156.61328-1.47265-.17578-.69532.21094-1.08203-.19531-1.75-.59765-1.00391-1.87109-2.02344-1.41797-3.39844 1.11719-3.35156 4.0586-5.32813 7.57032-5.85938.1875-.0273 1.22656.0312 1.2539-.25781.0781-.95703-.47265-.32422-1.09375-.75-1.9375-1.32031.95313-2.07812-1.375-7.42969-1.58594.082-2.69922 1.4336-3.66406 2.57813-.98438 1.16797-2.03125 1.8125-3.46484 2.25391-1.22657.375-2.44532.35937-3.54297 1.10937-.73047.48828-1.46485.97656-2.05469 1.61719-.51953.5625-.73828 1.43359-1.375 1.8789-.79297.57032-.67188.39063-.92578 1.3125-.16406.63672-.11719 1.27735-.26172 1.91797-.29297 1.41797-1.35547 2.37891-2.52734 3.10547 1.29296.41406 2.25.36719 3.11718-.83984.3125-.44141.54297-.95313.79297-1.44531.21875-.39063.67969-.11719.57813.26953-.35938 1.39843 1.20312 1.83593 1.68359 3.09375.49219 1.30078-.32812 2.8125-1.44531 3.5-.92188.5664-2.00391.41797-2.73828 1.27734-.64453.74609-1.84766 2.44141-3.00391 1.47266-.20312-.1875-.75391-.46485-.81641-.77735-.0859-.49609.14454-1.34765-.42187-1.67578-.50391-.29297-2.26563 1.53125-2.55859 1.84766.61328.49219 1.73437.67969 1.9414 1.5664.0977.42579-2.28515-.73437-2.82812-.74609-.15235-.004-.67969 2.28125-.67188 2.67578.0117.91016 2.16016.12891 2.72266.17578.0391.85938-.74219.71094-1.32813.95703-.92187.37891.46875 1.52735.69141 1.94532.27734.54297.0625 1.54687 1.03516 1.1289.80078-.33984.65234-1.41797 1.34375-1.92187.54687-.41016 1.64843-.98047 2.35156-.9336.99219.0547 1.40234.74219.59765 1.44532-1.02343.86328.0547.99609.34766 1.57812.83984-.23828 1.36719.6211 1.72266 1.1836h.004c.48438-.4961-.49609-.95313.0234-1.44532"/><path d="m162.83203 180.00781c.44141-.36328 2.80859-1.875 1.47656-2.70703-.29687.41797-1.18359.26563-1.60156.76563-.42187.5-.33203 1.5.125 1.9414"/><path d="m169.36328 179.61719c-1.02734-.37891-1.08594 1.60547-.15234 2.01562.16406-.73828 1.10937-1.66406.15234-2.01562"/><path d="m163.07031 174.07031c-.8125-.10547-1.46875 1.08594-1.27734 1.81641-.0273-.0898.0547-.0234 0 0 .98828-.38672 1.57422-.57422 1.27734-1.81641"/><path d="m173.30469 179.67187c-.98047-.84765-1.3125.16407-.78907.96094.26563-.32031.51954-.64844.78907-.96094"/><path d="m182.73437 129.09375c1.96875-1.33203 3.51954-4.33594.48829-5.64453-.17188 1.75-.17579 2.51953-1.59766 3.69531-1.40625 1.16016-3.4375 1.11719-4.80469 2.41016-.64453.60547-1.25781 1.67968-.88281 2.59375.12891.33203.78906 1.2539.55078 1.65234-.63281 1.00781-2.47266-2.95312-2.52344-3.41016-.57812-4.55468 5.36719-6.0039 8.12891-7.99999 1.57812-1.14454 2.94531-2.14063 3.10547-4.23047.10937-1.38282-.82422-3.57422-2.41797-3.75391-.0391-.004.29297 2.12109.30859 2.35938.0664.91796-.0898 1.78515-.65625 2.54296-.96484 1.29297-2.6875 1.64063-4.12109 2.17188-1.59375.58594-3.30078.85937-4.51953 2.125-.73438.75781-1.08203 1.82031-1.32813 2.82422-.125.48047-.23828 4.375-1.21875 2.01172-.1875-.44922-.043-2.69532.41016-3.96094.73047-1.94531 2.30469-3.32813 3.69141-4.76953 1.75781-1.8125 3.64062-3.35938 5.05468-5.48828.9375-1.41407 1.8125-3.14063 1.8086-4.875-.0117-2.92188-3.69141-5.81641-6.53125-5.36719-2.29297.35937-4.01172.94922-5.42969 2.86328-.64453.86719-1.40625 2.19922-1.39453 3.32031.0117 1.21875.55469 2.07813.83203 3.23828.40625 1.69532 2.09766 4.91016-.5 5.86329.64062 1.03125 2.06641.33984 2.82031-.21485 2.83203-2.09375 2.25781-4.74609 1.56641-7.76562-.4375-1.89453-.67969-3.78125 1.37109-4.78125 1.82422-.88672 3.6836-.29297 4.67578 1.42968 2.05078 3.57032-1.64843 7.51172-3.99609 9.80079-2.52734 2.45312-5.50391 4.77343-6.4375 8.28906-1.01563 3.85937 1.26172 7.64453 3.54297 10.53125.49219.61718 2.34375 2.83984 2.80078 3.54687 1.14062 1.80469 2.53906 4.10156 1.71094 6.28516-1.4375 3.74609-6.74219 3.09765-8.78516.46875-.12891-.16797-.24609-.35156-.36719-.52735-.008-.008-.0156-.0156-.0234-.0273-.0117-.0195-.0234-.0391-.0391-.0586-.28125-.39844-.55078-.8086-.80859-1.23047-.12891-.20703-.25-.41797-.37891-.63281-.0742-.12891-.15234-.25782-.22265-.38672-.55469-.96485-1.0586-1.91797-1.49219-2.79688-.88281-1.68359-1.60547-3.76172-2.70313-5.27734-.52734 1.20312-1.01953 2.30469-1.99609 3.22265-1.73828 1.63672 1.32031 2.45313.58203 3.66407-.67187 1.10156-3.40234-.53907-3.875-1.13672-.46094-.57813-.90625-1.26953-1.03906-2.00781-.043-.23438.0859-1.51954-.0898-1.61719-.8086.85156-1.80469 1.76562-2.48829 2.71484-1.1914 1.69922.30079 2.29297 1.67969 2.98438 2.96094 1.48437 5.65235 3.35547 5.36719 6.92578-.11328 1.35937-.57422 3.40625-.14453 4.73437.24609.78516.62109.9375 1.03906 1.55469.54688.80859-.89062.27344-.96875.27344-1.66797-.0781-1.35937 2.55469-1.37109 3.44531-.0312 1.91016-1.10157 2.37109-2.51563 3.23438l.0937.14453s.17578.30468.5.37109c.008 0 .0156.004.0195.004.14844.0234.31641.008.51953-.11719l.0156-.0117c1.21875-.64844 2.73047-3.60156 2.91016-4.00781.29687-.75391.92187-.51563 1.23046.0664.27344.52735-.1914.58594.40235 1.19922.39062.41797.92578.76953 1.40625 1.08203 2.09375 1.35938 4.69922 2.14454 6.4414 4.02735 1.32032 1.44531 1.11329 4.35937-.16796 5.76562-1.67579 1.83203-3.65235.5586-5.71094.98828-.75781.15625-.90625 1.97266-.50391 2.5586.61719.91797 1.69141.89062 1.44531 2.375-.52734 3.10547 1.92188-.89063 2.7461-1.50391.59375-.46875 1.58203-1.05469 2.34765-.60937.70704.41015-.97656 2.04297-1.26562 2.40234.51562.30859.99609.63281 1.48437 1 .1211-.51172.22266-1 .60938-1.35156.0156-.0117.0312-.0273.0508-.043.0547-.0469.0977-.0977.16797-.13672.79687-.44922.67578.13672 1.10937.49219.26172.21875.96485.33594 1.30079.53515.86718.48438.004-1.3789.0156-1.45703.14844-1.51172 3.19922-2.22656 2.48828-3.8789-.33594-.78516.41797-1.19141.60938-.39063.15234.64453 1.15625.69922 1.63281.53125-.54688-.41406-1.08594-.80078-1.46094-1.38281-.41015-.64453-.26953-.96484.0156-1.23047.0156-.0117.0312-.0234.043-.0352.27343-.23828.64453-.4414.80859-.82031-.35156-.54687-1.92188-.6914-.43359-1.28125.99218-.39844 2.16015.0312 3.07031-.88281-.87891-.21875-2.16016.91016-2.88672-.40625-.33594-.58984-.59375-1.26953-1.05078-1.76953 0-.0117-1.29688-1.13672-.51953-1.10156 1.03125.0586 1.22265 1.20703 2.17968 1.02343 1.85157-.33593 2.74219-1.83984 4.70704-.91797.65625-3.46093-5.26954.56641-5.85547-2.96093-.19532-1.08985.88672-1.11328 1.76953-1.25 1.55859-.23828 1.46875-1.65235 1.73828-2.85938-.004-.0195-.004-.0352-.008-.0547-.95313.26563-1.87891.44141-2.84375.60938-.96094.16016-1.02344 1.48828-1.69922 1.62891-.48438.0977-1.26953-.90625-1.62891-1.12891-.78906-.47266-1.47656-.67578-2.07812-1.40625-1.01953-1.23438-2.44532-3.09375-2.59766-4.70703-.082-.78125-.0937-1.57031-.14844-2.34375-.0586-.76172 2.07422.10547 2.3711.17187 2.15625.42578 3.76953.0937 5.52343-1.24218 2.11329-1.60547 1.91797-3.39454 1.45313-5.77735-.70313-3.51562-.0781-10.8125 5.35156-8.23047-.0391-1.34375-1.23437-2.13672-2.48047-2.21875-1.34375-.0898-2.44531 1.25-3.10156 2.25-.22266.32422-.22266 2.60157-1.08203 2.24219-.88281-.36719-.63672-2.69531-.48828-3.4375.54297-2.78906 3.44531-3.90234 5.5664-5.33203"/><path d="m152.07812 117.58594c.11329.13281.25391.13281.39454.008-.0859-.0898-.1836-.17969-.28125-.26562-.043.0859-.082.16796-.11329.25781"/><path d="m151.00781 113.85547c-.39062.0703-.39453 0-.55078.0937.0469-.0273-.0234.16797 0 0-.043.29297-.16016.92969.36719.85937.0625-.3164.125-.63671.18359-.95312"/><path d="m156.00391 114.27734c-2.03907-.22265-3.37891.94922-5.10157 1.5625-.96875.34375-1.97265.78125-3.01953.36719-.47656-.1914-1.76562-1.15234-2.19922-1.16015.21875 2.67187 2.36719 3.32421 4.53516 2.3164.98828-.46094 1.77344-1.26953 2.80469-1.67578.86328-.33984 2.90234-.42969 2.98047-1.41016"/><path d="m154.625 108.9375c-.35156.32422-1.83984-.14453-1.91797-.9375-.0469-.46875 2.48047.42188 1.91797.9375m11.35937 8.23828c-.29687-1.05859.16016-2.26562-.20312-3.32031-.10938-.32422-.70703-.64844-.69141-.98828.008-.45703.89063-.76172 1.15235-1.08203-.29297-.0273-.59375-.0156-.875-.0937-.26953-.0703-.47266-.25-.62891-.48047-.14453-.21485-.25-.46875-.36719-.70313-.10937-.21875-.21875-.4375-.3164-.66406-.0312-.0703-.44922-1.14844-.34766-1.16016-.47656.0508-2.04687.75391-2.05859-.11718-.004-.39844 1.875-.48828 2.30468-.77735.59375-.40234.73829-.91797.0156-1.26953-.71094-.33984-1.54688-.39453-2.30469-.1875-.78125.21094-1.14453.69922-1.68359 1.25781-.0273.0312-.0586.0625-.10156.0781-.28516.0937-.34375-.53906-.3125-.70313.0625-.3125.29687-.51953.54296-.6914.26172-.1836.5586-.3086.85938-.41016.29297-.10156.61328-.13281.88672-.29297-.58985-.84765-1.88281-1.26953-2.875-1.26953-1.12891-.0586-2.25391.20313-3.32813.52735-.9375.28515-1.85156.63281-2.77734.94921-.47266.16407-1.17969.72266-1.69141.65235-.0898-.0156-.15625.48828-.24218.92578-.0156.10547-.0391.20312-.0625.29297-.0352.13672-.0742.25-.1211.30078-.043.0547-.10547.10547-.16797.16016-.0273.0195-.0586.0391-.0898.0625-1.01172.71484-3.58594 1.3164-2.19531 2.96484.48047.56641.21875 1.04687.47265 1.64062.33594.80079 1.83594.55469 2.44141.33985.87109-.30469 4.125-1.86719 4.78516-.79297.83984 1.37891 1.10546 3.28125.26953 4.78516-.80469 1.42187-3.05078.87109-4.34375 1.33984.0703.76172.0625 2.33594 1.01562 2.59375 1.01563.28516 2.52735-.96094 3.13672-1.64063.14844-.17578 1.41016-1.97265 1.64844-1.17578.26953.94532-1.23047 2.64063-1.79688 3.26172-.6914.73438-1.92968 1.14063-2.91015 1.1211-1.20703-.0273-2.14453-.66016-3.29297-.47657-.0273.004-.0586.0156-.0898.0234-.13671.0273-.27343.0547-.41796.10938-2.11719.76562-5 .55078-4.34766-2.42969-1.45313.2539-2.07422 1.91797-1.28516 3.125.41016.6289 1.1836 1.08203 1.90235 1.22656.0312.004.0781.004.13281.004h.19531c.0508 0 .10547.004.15625.004h.0586c.4375.0117.94531.082.8789.51563-.0898.62109-1.67187 1.13281-2.22656 1.21875-1.70313.25781-2.86719.0937-4.34766-.67188-.12109 1.61719 1.71485 4.16406 3.61719 3.89063.52734-.0742 1.04688-.21875 1.57422-.29688.32812-.0508.70312-.125.98828.0898.24609.18359.56641.87109.21484 1.09375-.0898.0547-.20312.0508-.30859.0469-1.10547-.0547-2.18359-.13672-3.25781.20703-1.17578.37891-1.84766 1.15235-2.60156 2.07031-.69141.85547-1.19141 1.3711-2.26954 1.71094-.61718.1875-1.09375-.13672-1.41796-.66015-.0781-.13282-.78516-1.6211-.69922-1.71875-1.34766 1.48437-.0781 3.48437 1.21093 4.5039.64454.50781 1.47266.97266 2.3125 1.00781 1.21875.0469 2.44532-.62109 3.48829-1.17187.70312-.36719 1.37109-.79297 2.03906-1.21484.46484-.28907 1.29687-1.03125 1.86328-1.00391.24219.0117.48437.19141.51172.43359.0195.19532-.0977.38282-.25.5-.36719.28516-.87891.32813-1.24219.6211-1.23828 1.00781-.69141 2.22265-.50391 3.57422.33594 2.49218-3.66406 3.6289-3.83984.5664-2.63672 1.45703-1.64453 3.0625.82422 3.82031 1.80469.56641 4.58594-.90625 5.5625-2.41406.38672-.58203.58594-1.34765.87109-1.98437.10938-.2461 1.08203-2.47266 1.48438-1.75782.43359.77735-.69922 1.82422-.46094 2.67188.35938 1.27734 1.08203 3.00781 2.32031 3.67187-.26172-.14062.13672-1.91015.22657-2.17187.26953-.79297.82812-1.4375 1.42968-2.00391 1.33594-1.25781 2.17578-2.70703 2.83985-4.40234.35547-.89453.76562.28906.54687.86328-.35156.83203-.5625 1.81641-.63672 2.71875-.13281 1.92188 1.17578 3.90234 3.29297 3.64063-.3789-.60157-.85547-.97266-.96094-1.71485-.17578-1.30078.81641-1.82812 1.48047-2.74609.53907-.7461 1.0586-1.69922 1.00782-2.64453-.0273-.51563-.24219-.9961-.28516-1.5-.0312-.41407.0508-2.71485.83594-2.45703.0195.008.0352.0273.043.0469.27343.29297-.19532 1.86328-.13672 2.33984.1289.88282.6875 2.01563 1.46093 2.64454.49219.40625 1.9375.78906 2.26563-.0312-.26172-.14063-.5625-.17579-.83984-.27344-1.09766-.38281-1.3125-1.71875-1.05079-2.71875.17188-.72656.5625-1.39844.71094-2.11719.14063-.625-1.14062-1.50391-.84765-1.9375.23828-.35937 1.83593 1.30859 2.57421.96484-.48046-1.03125-1.14062-2.10546-.83984-3.29687.30078-1.17578.54688-2.37109.78125-3.56641.12891-.73437.71875-2.48046-.32031-2.8789-.34375-.13281-1.19922-.27344-1.38672-.66797-.10156-.23047.0156-.62891.32031-.48828.83985.39844 1.9375.78515 2.72266.0195.27344-.27344-1.44141-1.35547-1.6211-1.96094"/></g></g></svg>