<svg xmlns="http://www.w3.org/2000/svg" width="256" height="173.89" viewBox="0 0 256 173.89"><defs><style>.a{fill:#fff;}.b{fill:#0f3f93;}.c{fill:#ffec00;}</style></defs><rect class="a" width="256" height="173.89"/><rect class="b" x="4.923" y="4.767" width="246.154" height="164.105"/><polygon class="c" points="122.755 40.523 127.949 36.732 133.143 40.523 131.167 34.393 136.442 30.602 129.939 30.602 127.949 24.398 125.959 30.609 119.459 30.602 124.732 34.393 122.755 40.523"/><polygon class="c" points="95.875 47.744 101.07 43.954 106.26 47.744 104.287 41.614 109.559 37.824 103.056 37.824 101.066 31.613 99.076 37.831 92.576 37.824 97.849 41.614 95.875 47.744"/><polygon class="c" points="81.401 51.325 79.411 57.543 72.912 57.536 78.184 61.327 76.207 67.457 81.401 63.666 86.596 67.457 84.619 61.327 89.891 57.536 83.392 57.536 81.401 51.325"/><polygon class="c" points="74.187 90.512 79.377 94.302 77.404 88.172 82.676 84.382 76.177 84.382 74.187 78.17 72.196 84.395 65.694 84.382 70.969 88.172 68.992 94.302 74.187 90.512"/><polygon class="c" points="83.392 111.309 81.401 105.097 79.411 111.316 72.912 111.309 78.184 115.099 76.207 121.229 81.401 117.432 86.596 121.229 84.619 115.099 89.891 111.309 83.392 111.309"/><polygon class="c" points="103.097 131.014 101.107 124.81 99.12 131.021 92.617 131.014 97.889 134.805 95.916 140.935 101.11 137.144 106.301 140.935 104.328 134.805 109.6 131.014 103.097 131.014"/><polygon class="c" points="129.943 138.154 127.953 131.943 125.966 138.161 119.463 138.154 124.735 141.945 122.762 148.075 127.956 144.284 133.147 148.075 131.17 141.945 136.446 138.154 129.943 138.154"/><polygon class="c" points="156.788 131.014 154.802 124.81 152.808 131.021 146.312 131.014 151.581 134.805 149.607 140.935 154.802 137.144 159.996 140.935 158.016 134.805 163.291 131.014 156.788 131.014"/><polygon class="c" points="176.5 111.309 174.507 105.097 172.513 111.316 166.017 111.309 171.293 115.099 169.313 121.229 174.507 117.432 179.701 121.229 177.721 115.099 182.997 111.309 176.5 111.309"/><polygon class="c" points="190.137 84.307 183.634 84.307 181.64 78.096 179.654 84.314 173.151 84.307 178.426 88.098 176.453 94.228 181.64 90.43 186.835 94.228 184.861 88.098 190.137 84.307"/><polygon class="c" points="169.313 67.375 174.507 63.585 179.701 67.375 177.721 61.245 182.997 57.461 176.5 57.461 174.507 51.25 172.513 57.468 166.017 57.461 171.293 61.245 169.313 67.375"/><polygon class="c" points="154.876 31.619 152.889 37.838 146.386 37.824 151.655 41.621 149.682 47.751 154.883 43.954 160.07 47.751 158.097 41.621 163.373 37.824 156.863 37.824 154.876 31.619"/></svg>