<?xml version="1.0" standalone="no"?>
<!DOCTYPE svg PUBLIC "-//W3C//DTD SVG 1.1//EN" "http://www.w3.org/Graphics/SVG/1.1/DTD/svg11.dtd" >
<svg xmlns="http://www.w3.org/2000/svg">
<defs>
  <font id="sema-font" horiz-adv-x="288">
    <font-face font-family="sema-font"
      units-per-em="256" ascent="256"
      descent="0" />
    <missing-glyph horiz-adv-x="0" />
    <glyph glyph-name="file-times"
      unicode="&#xEA02;"
      horiz-adv-x="192" d="M184.95 207.05L143 249C138.5 253.5 132.4 256.05 126.05 256.05H24C10.75 256 0 245.25 0 232V24C0 10.75 10.75 0 24 0H168C181.25 0 192 10.75 192 24V190.05C192 196.4 189.45 202.55 184.95 207.05zM166.05 192H128V230.05L166.05 192zM24 24V232H104V180C104 173.35 109.35 168 116 168H168V24H24zM139.85 68.65L131.35 60.15C129 57.8 125.2 57.8 122.85 60.15L96 87.05L69.15 60.2C66.8 57.85 63 57.85 60.65 60.2L52.15 68.7C49.8 71.05 49.8 74.85 52.15 77.2L79 104.05L52.15 130.9C49.8 133.25 49.8 137.05 52.15 139.4L60.65 147.9C63 150.25 66.8 150.25 69.15 147.9L96 121L122.85 147.85C125.2 150.2 129 150.2 131.35 147.85L139.85 139.35C142.2 137 142.2 133.2 139.85 130.85L112.95 104L139.8 77.15C142.2 74.8 142.2 71 139.85 68.65z" />
    <glyph glyph-name="file-plus"
      unicode="&#xEA03;"
      horiz-adv-x="192" d="M184.95 207.05L143 249C138.5 253.5 132.4 256.05 126.05 256.05H24C10.75 256 0 245.25 0 232V24C0 10.75 10.75 0 24 0H168C181.25 0 192 10.75 192 24V190.05C192 196.4 189.45 202.55 184.95 207.05zM166.05 192H128V230.05L166.05 192zM24 24V232H104V180C104 173.35 109.35 168 116 168H168V24H24zM152 110V98C152 94.7 149.3 92 146 92H108V54C108 50.7 105.3 48 102 48H90C86.7 48 84 50.7 84 54V92H46C42.7 92 40 94.7 40 98V110C40 113.3 42.7 116 46 116H84V154C84 157.3 86.7 160 90 160H102C105.3 160 108 157.3 108 154V116H146C149.3 116 152 113.3 152 110z" />
    <glyph glyph-name="file"
      unicode="&#xEA04;"
      horiz-adv-x="192" d="M184.95 207.05L143 249C138.5 253.5 132.4 256.05 126.05 256.05H24C10.75 256 0 245.25 0 232V24C0 10.75 10.75 0 24 0H168C181.25 0 192 10.75 192 24V190.05C192 196.4 189.45 202.55 184.95 207.05zM166.05 192H128V230.05L166.05 192zM24 24V232H104V180C104 173.35 109.35 168 116 168H168V24H24z" />
    <glyph glyph-name="cog"
      unicode="&#xEA05;"
      horiz-adv-x="256" d="M226.2575 137.5L242.179 146.691C246.892 149.4115 249.177 154.962 247.7675 160.218C242.0655 181.4835 230.8465 200.4915 215.7385 215.6165C211.8985 219.4605 205.951 220.2395 201.246 217.522L185.3535 208.343A98.138 98.138 0 0 1 168.904 217.853V236.2295A12.008000000000001 12.008000000000001 0 0 1 159.983 247.8325C139.1025 253.386 116.9245 253.393 96.018 247.833C90.7585 246.434 87.096 241.6725 87.096 236.23V217.8535A98.138 98.138 0 0 1 70.6465 208.3435L54.754 217.5225C50.049 220.24 44.1015 219.461 40.2615 215.617C25.1535 200.492 13.9345 181.4845 8.2325 160.2185C6.823 154.9625 9.108 149.412 13.821 146.6915L29.7425 137.5A98.8575 98.8575 0 0 1 29.7425 118.5005L13.821 109.3095C9.108 106.589 6.823 101.0385 8.2325 95.7825C13.9345 74.517 25.1535 55.509 40.2615 40.384C44.1015 36.54 50.049 35.761 54.754 38.4785L70.6465 47.6575A98.10099999999998 98.10099999999998 0 0 1 87.096 38.148V19.7715A12.008000000000001 12.008000000000001 0 0 1 96.017 8.1685C116.8975 2.615 139.0755 2.6075 159.982 8.168C165.2415 9.567 168.904 14.3285 168.904 19.771V38.1475A98.17 98.17 0 0 1 185.3535 47.657L201.246 38.478C205.951 35.7605 211.8985 36.5395 215.7385 40.3835C230.8465 55.5085 242.0655 74.5165 247.7675 95.782C249.177 101.038 246.892 106.5885 242.179 109.309L226.2575 118.5C226.8675 124.825 226.8675 131.175 226.2575 137.5zM199.918 105.9905L221.8275 93.346A100.069 100.069 0 0 0 204.903 64.082L182.9885 76.7365C166.9965 63.038 164.659 61.698 144.9045 54.722V29.4225A100.4585 100.4585 0 0 0 111.0955 29.4225V54.722C91.3435 61.697 88.9975 63.043 73.0115 76.7365L51.097 64.082A100.07499999999999 100.07499999999999 0 0 0 34.1725 93.346L56.082 105.9905C52.267 126.64 52.265 129.35 56.082 150.0095L34.1725 162.654C38.0975 173.2685 43.8275 183.1785 51.097 191.9185L73.0115 179.264C89.0035 192.9625 91.3415 194.303 111.0955 201.2785V226.5775A100.4585 100.4585 0 0 0 144.9045 226.5775V201.278C164.6565 194.303 167.0025 192.957 182.9885 179.2635L204.903 191.918A100.0715 100.0715 0 0 0 221.8275 162.6535L199.918 150.009C203.7335 129.359 203.735 126.65 199.918 105.9905zM128 176C101.5325 176 80 154.4675 80 128S101.5325 80 128 80S176 101.5325 176 128S154.4675 176 128 176zM128 104C114.766 104 104 114.766 104 128C104 141.2335 114.766 152 128 152S152 141.2335 152 128C152 114.766 141.234 104 128 104z" />
    <glyph glyph-name="home"
      unicode="&#xEA06;"
      horiz-adv-x="288" d="M278.55 135.65L256 154.1V204C256 206.2 254.2 208 252 208H236C233.8 208 232 206.2 232 204V173.75L156.7 235.45C149.35 241.5 138.7 241.5 131.35 235.45L9.45 135.65C7.75 134.25 7.5 131.75 8.9 130L19.05 117.6C20.45 115.9 22.95 115.65 24.7 117.05L32.05 123.05V24C32.05 19.6 35.65 16 40.05 16H124.05C126.25 16 128.05 17.8 128.05 20V84H160.05V20C160.05 17.8 161.85 16 164.05 16H248.05C252.45 16 256.05 19.6 256.05 24V123.1L263.4000000000001 117.1C265.1 115.7 267.6500000000001 115.95 269.05 117.65L279.2 130.05C280.5 131.75 280.25 134.25 278.55 135.65zM232 40H184V104C184 106.2 182.2 108 180 108H108C105.8 108 104 106.2 104 104V40H56V142.75L141.45 212.75C142.9 213.95 145.05 213.95 146.5 212.75L231.95 142.75V40z" />
    <glyph glyph-name="arrows"
      unicode="&#xEA07;"
      horiz-adv-x="256" d="M180.2745 49.892L132.2425 1.7575C129.8995 -0.5855 126.1005 -0.5855 123.757 1.7575L75.725 49.892C73.382 52.235 73.382 56.034 75.725 58.3775L85.538 68.1905C87.9145 70.567 91.78 70.528 94.108 68.104L115 45.61H116V116H45.61V115L68.103 94.1085C70.5275 91.7805 70.5665 87.915 68.1895 85.5385L58.3765 75.7255C56.0335 73.3825 52.2345 73.3825 49.891 75.7255L1.7575 123.7575C-0.5855 126.1005 -0.5855 129.8995 1.7575 132.243L49.892 180.275C52.235 182.618 56.034 182.618 58.377 180.275L68.19 170.462C70.5665 168.0855 70.5275 164.22 68.1035 161.892L45.61 141V140H116V210.39H115L94.1085 187.897C91.7805 185.4725 87.915 185.4335 85.5385 187.8105L75.7255 197.6235C73.3825 199.9665 73.3825 203.7655 75.7255 206.109L123.7575 254.2435C126.1005 256.5865 129.8995 256.5865 132.243 254.2435L180.275 206.109C182.618 203.766 182.618 199.967 180.275 197.6235L170.462 187.8105C168.0855 185.434 164.22 185.473 161.892 187.897L141 210.39H140V140H210.39V141L187.897 161.8915C185.4725 164.2195 185.4335 168.085 187.8105 170.4615L197.6235 180.2745C199.9665 182.6175 203.7655 182.6175 206.109 180.2745L254.2435 132.2425C256.5865 129.8995 256.5865 126.1005 254.2435 123.757L206.109 75.725C203.766 73.382 199.967 73.382 197.6235 75.725L187.8105 85.538C185.434 87.9145 185.473 91.78 187.897 94.108L210.39 115V116H140V45.61H141L161.8915 68.103C164.2195 70.5275 168.085 70.5665 170.4615 68.1895L180.2745 58.3765C182.618 56.034 182.618 52.235 180.2745 49.892z" />
    <glyph glyph-name="long-arrow-left"
      unicode="&#xEA08;"
      horiz-adv-x="224" d="M76.2425 57.858L86.0555 67.671C88.432 70.0475 88.393 73.913 85.969 76.241L45.61 115H218C221.3135 115 224 117.6865 224 121V135C224 138.3135 221.3135 141 218 141H45.61L85.9685 179.759C88.393 182.087 88.432 185.9525 86.055 188.329L76.242 198.142C73.899 200.485 70.1 200.485 67.7565 198.142L1.858 132.2425C-0.485 129.8995 -0.485 126.1005 1.858 123.757L67.7575 57.8575C70.1005 55.515 73.8995 55.515 76.2425 57.858z" />
    <glyph glyph-name="long-arrow-down"
      unicode="&#xEA09;"
      horiz-adv-x="160" d="M150.15 92.25L140.35 102.05C137.95 104.45 134.1 104.4 131.8 101.95L93 61.6V234C93 237.3 90.3 240 87 240H73C69.7 240 67 237.3 67 234V61.6L28.25 101.95C25.9 104.35 22.05 104.4 19.7 102.05L9.9 92.25C7.55 89.9 7.55 86.1 9.9 83.75L75.8 17.85C78.15 15.5 81.95 15.5 84.3 17.85L150.2 83.75C152.5 86.1 152.5 89.9 150.15 92.25z" />
    <glyph glyph-name="long-arrow-right"
      unicode="&#xEA0A;"
      horiz-adv-x="224" d="M147.7575 198.142L137.9445 188.329C135.568 185.9525 135.607 182.087 138.031 179.759L178.39 141H6C2.6865 141 0 138.3135 0 135V121C0 117.6865 2.6865 115 6 115H178.39L138.0315 76.241C135.607 73.913 135.568 70.0475 137.945 67.671L147.758 57.858C150.101 55.515 153.9 55.515 156.2435 57.858L222.143 123.7575C224.486 126.1005 224.486 129.8995 222.143 132.243L156.2425 198.142C153.8995 200.485 150.1005 200.485 147.7575 198.142z" />
    <glyph glyph-name="long-arrow-up"
      unicode="&#xEA0B;"
      horiz-adv-x="160" d="M9.858 163.7575L19.671 153.9445C22.0475 151.568 25.913 151.607 28.241 154.031L67 194.39V22C67 18.6865 69.6865 16 73 16H87C90.3135 16 93 18.6865 93 22V194.39L131.759 154.0315C134.087 151.607 137.9525 151.568 140.329 153.945L150.142 163.758C152.485 166.101 152.485 169.9 150.142 172.2435L84.2425 238.142C81.8995 240.485 78.1005 240.485 75.757 238.142L9.858 172.2425C7.515 169.8995 7.515 166.1005 9.858 163.7575z" />
    <glyph glyph-name="arrows-v"
      unicode="&#xEA0C;"
      horiz-adv-x="160" d="M136.55 82.3C134.15 84.7 130.3 84.65 128 82.2L93 45.6V210.4L128 173.8C130.35 171.4 134.2 171.35 136.55 173.7L146.35 183.5C148.7 185.85 148.7 189.65 146.35 192L84.25 254.25C81.9 256.6 78.1 256.6 75.75 254.25L13.6 192C11.25 189.65 11.25 185.85 13.6 183.5L23.4 173.7C25.8 171.3 29.65 171.35 31.95 173.8L66.95 210.4V45.6L31.95 82.2C29.6 84.6 25.75 84.65 23.4 82.3L13.6 72.5C11.25 70.15 11.25 66.35 13.6 64L75.75 1.75C78.1 -0.6 81.9 -0.6 84.25 1.75L146.4 64C148.75 66.35 148.75 70.15 146.4 72.5L136.55 82.3z" />
    <glyph glyph-name="arrows-h"
      unicode="&#xEA0D;"
      horiz-adv-x="256" d="M173.702 184.57C171.3255 182.1935 171.3645 178.328 173.7885 176L210.39 141H45.61L82.2115 176C84.636 178.328 84.675 182.1935 82.298 184.57L72.485 194.383C70.142 196.726 66.343 196.726 63.9995 194.383L1.7575 132.2425C-0.5855 129.8995 -0.5855 126.1005 1.7575 123.757L64 61.617C66.343 59.274 70.142 59.274 72.4855 61.617L82.2985 71.43C84.675 73.8065 84.636 77.672 82.212 80L45.61 115H210.39L173.7885 80C171.364 77.672 171.325 73.8065 173.702 71.43L183.515 61.617C185.858 59.274 189.657 59.274 192.0005 61.617L254.243 123.7575C256.586 126.1005 256.586 129.8995 254.243 132.243L192 194.383C189.657 196.726 185.858 196.726 183.5145 194.383L173.702 184.57z" />
    <glyph glyph-name="plus"
      unicode="&#xEA0E;"
      horiz-adv-x="192" d="M184 144H112V216C112 220.42 108.42 224 104 224H88C83.58 224 80 220.42 80 216V144H8C3.58 144 0 140.42 0 136V120C0 115.58 3.58 112 8 112H80V40C80 35.58 83.58 32 88 32H104C108.42 32 112 35.58 112 40V112H184C188.42 112 192 115.58 192 120V136C192 140.42 188.42 144 184 144z" />
    <glyph glyph-name="minus"
      unicode="&#xEA0F;"
      horiz-adv-x="192" d="M184 144H8C3.58 144 0 140.42 0 136V120C0 115.58 3.58 112 8 112H184C188.42 112 192 115.58 192 120V136C192 140.42 188.42 144 184 144z" />
    <glyph glyph-name="redo"
      unicode="&#xEA10;"
      horiz-adv-x="256" d="M250 252H236.1445C232.775 252 230.066 249.226 230.146 245.857L231.3195 196.573C209.0375 230.083 170.894 252.135 127.6035 251.9995C59.41 251.786 3.8935 195.9955 4 127.802C4.107 59.4095 59.5825 4 128 4C159.963 4 189.101 16.0935 211.089 35.954C213.6455 38.263 213.766 42.2345 211.33 44.6705L201.461 54.5395C199.212 56.7885 195.5845 56.932 193.2105 54.8155C175.8935 39.377 153.0525 30 128 30C73.839 30 30 73.831 30 128C30 182.161 73.831 226 128 226C167.7725 226 201.9705 202.359 217.3375 168.349L154.143 169.8535C150.7745 169.9335 148 167.225 148 163.855V150C148 146.6865 150.6865 144 154 144H250C253.3135 144 256 146.6865 256 150V246C256 249.3135 253.3135 252 250 252z" />
    <glyph glyph-name="angle-double-down"
      unicode="&#xEA11;"
      horiz-adv-x="160" d="M75.75 42.1L1.75 115.5C-0.6 117.85 -0.6 121.65 1.75 124L11.65 133.9C14 136.25 17.8 136.25 20.15 133.9L80 74.65L139.85 133.9C142.2 136.25 146 136.25 148.35 133.9L158.25 124C160.6 121.65 160.6 117.85 158.25 115.5L84.25 42.1C81.9 39.75 78.1 39.75 75.75 42.1zM84.25 122.1L158.25 195.5C160.6 197.85 160.6 201.65 158.25 204L148.35 213.9C146 216.25 142.2 216.25 139.85 213.9L80 154.65L20.15 213.9C17.8 216.25 14 216.25 11.65 213.9L1.75 204C-0.6 201.65 -0.6 197.85 1.75 195.5L75.75 122.1C78.1 119.75 81.9 119.75 84.25 122.1z" />
    <glyph glyph-name="angle-down"
      unicode="&#xEA12;"
      horiz-adv-x="160" d="M75.75 82.1L1.75 155.5C-0.6 157.85 -0.6 161.65 1.75 164L11.65 173.9C14 176.25 17.8 176.25 20.15 173.9L80 114.65L139.85 173.9C142.2 176.25 146 176.25 148.35 173.9L158.25 164C160.6 161.65 160.6 157.85 158.25 155.5L84.25 82.1C81.9 79.75 78.1 79.75 75.75 82.1z" />
    <glyph glyph-name="chevron-double-down"
      unicode="&#xEA13;"
      horiz-adv-x="224" d="M220.95 211.15L116.25 106.45C113.9 104.1 110.1 104.1 107.75 106.45L3.05 211.15C0.7 213.5 0.7 217.3 3.05 219.65L12.95 229.55C15.3 231.9 19.1 231.9 21.45 229.55L112 139.2L202.55 229.55C204.9 231.9 208.7 231.9 211.05 229.55L220.95 219.65C223.3 217.3 223.3 213.5 220.95 211.15zM220.95 139.65L211.05 149.55C208.7 151.9 204.9 151.9 202.55 149.55L112 59.2L21.45 149.55C19.1 151.9 15.3 151.9 12.95 149.55L3.05 139.65C0.7 137.3 0.7 133.5 3.05 131.15L107.75 26.45C110.1 24.1 113.9 24.1 116.25 26.45L220.95 131.15C223.3 133.5 223.3 137.3 220.95 139.65z" />
    <glyph glyph-name="chevron-down"
      unicode="&#xEA14;"
      horiz-adv-x="224" d="M220.95 172.35L211.05 182.25C208.7 184.6 204.9 184.6 202.55 182.25L112 91.9L21.45 182.25C19.1 184.6 15.3 184.6 12.95 182.25L3.05 172.35C0.7 170 0.7 166.2 3.05 163.85L107.75 59.15C110.1 56.8 113.9 56.8 116.25 59.15L220.95 163.85C223.3 166.2 223.3 170 220.95 172.35z" />
    <glyph glyph-name="grip-vertical"
      unicode="&#xEA15;"
      horiz-adv-x="160" d="M60 256H12C5.375 256 0 250.63 0 244V196C0 189.375 5.375 184 12 184H60C66.63 184 72 189.375 72 196V244C72 250.63 66.63 256 60 256zM48 208H24V232H48V208zM148 256H100C93.375 256 88 250.63 88 244V196C88 189.375 93.375 184 100 184H148C154.63 184 160 189.375 160 196V244C160 250.63 154.63 256 148 256zM136 208H112V232H136V208zM60 72H12C5.375 72 0 66.63 0 60V12C0 5.375 5.375 0 12 0H60C66.63 0 72 5.375 72 12V60C72 66.63 66.63 72 60 72zM48 24H24V48H48V24zM148 72H100C93.375 72 88 66.63 88 60V12C88 5.375 93.375 0 100 0H148C154.63 0 160 5.375 160 12V60C160 66.63 154.63 72 148 72zM136 24H112V48H136V24zM60 164H12C5.375 164 0 158.63 0 152V104C0 97.375 5.375 92 12 92H60C66.63 92 72 97.375 72 104V152C72 158.63 66.63 164 60 164zM48 116H24V140H48V116zM148 164H100C93.375 164 88 158.63 88 152V104C88 97.375 93.375 92 100 92H148C154.63 92 160 97.375 160 104V152C160 158.63 154.63 164 148 164zM136 116H112V140H136V116z" />
    <glyph glyph-name="pen"
      unicode="&#xEA17;"
      horiz-adv-x="256" d="M6.4 70.4L0.1 13.35C-0.75 5.7 5.7 -0.75 13.35 0.1L70.45 6.45L246.65 182.65C259.15 195.15 259.15 215.4 246.65 227.9L227.9 246.65C215.4 259.15 195.15 259.15 182.65 246.65L6.4 70.4zM63.05 21.7L16.5 16.55L21.65 63.1L157.6 199.05L198.95 157.7L63.05 21.7zM235.3 193.95L210.35 169L169 210.35L193.95 235.3C200.2 241.55 210.3 241.55 216.6 235.3L235.35 216.55C241.55 210.35 241.55 200.2 235.3 193.95z" />
    <glyph glyph-name="pen-2"
      unicode="&#xEA1A;"
      horiz-adv-x="256" d="M246.63 227.87L227.875 246.625C221.625 252.875 213.435 256 205.245 256S188.865 252.875 182.62 246.63L145.375 209.385L128 192.01L6.425 70.44L0.075 13.33C-0.725 6.14 4.94 0 11.975 0C12.42 0 12.87 0.025 13.32 0.075L70.39 6.38L192.01 128L209.38 145.37L246.625 182.615C259.125 195.115 259.125 215.375 246.63 227.87zM59.375 29.305L25.585 25.575L29.35 59.42L144.97 175.04L160.48 190.55L190.55 160.48L175.04 144.97L59.375 29.305zM229.655 199.59L207.515 177.45L177.45 207.52L199.59 229.66C201.63 231.7 204.01 232.005 205.245 232.005S208.865 231.7 210.9 229.66L229.655 210.905C232.775 207.78 232.775 202.705 229.655 199.59z" />
    <glyph glyph-name="file-import"
      unicode="&#xEA1B;"
      horiz-adv-x="256" d="M248.915 207.01L206.97 248.95C202.47 253.45 196.37 256 190.025 256H87.995C74.75 255.95 64 245.2 64 231.955V123.965H6C2.685 123.965 0 121.28 0 117.965V105.965C0 102.65 2.685 99.965 6 99.965H144V75.525C144 70.17 150.485 67.5 154.26 71.3L190.145 107.455C192.62 109.95 192.62 113.975 190.145 116.47L154.26 152.625C150.485 156.425 144 153.755 144 148.4V123.96H87.995V231.955H167.98V179.965C167.98 173.315 173.33 167.97 179.98 167.97H232V23.995H87.995V75.965H64V23.995C64 10.75 74.75 0 87.995 0H231.965C245.215 0 256 10.75 256 23.995V190.015C256 196.36 253.415 202.51 248.915 207.01zM191.975 191.965V230.005L230.02 191.965H191.975z" />
    <glyph glyph-name="file-export"
      unicode="&#xEA1C;"
      horiz-adv-x="288" d="M286.145 116.47L250.26 152.625C246.485 156.425 240 153.755 240 148.4V123.96H192V190.01C192 196.36 189.415 202.51 184.915 207.005L142.97 248.95C138.47 253.45 132.37 256 126.025 256H23.995C10.75 255.95 0 245.2 0 231.955V23.995C0 10.75 10.75 0 23.995 0H167.965C181.215 0 192 10.75 192 23.995V75.965H168V23.995H23.995V231.955H103.98V179.965C103.98 173.315 109.33 167.97 115.98 167.97H168V123.965H86C82.685 123.965 80 121.28 80 117.965V105.965C80 102.65 82.685 99.965 86 99.965H240V75.525C240 70.17 246.485 67.5 250.26 71.3L286.145 107.455C288.62 109.95 288.62 113.975 286.145 116.47zM127.975 191.965V230.005L166.02 191.965H127.975z" />
    <glyph glyph-name="file-csv"
      unicode="&#xEA1D;"
      horiz-adv-x="192" d="M184.915 207.01L142.97 248.95C138.47 253.45 132.37 256 126.025 256H23.995C10.75 255.95 0 245.2 0 231.955V23.995C0 10.75 10.75 0 23.995 0H167.965C181.215 0 192 10.75 192 23.995V190.015C192 196.36 189.415 202.51 184.915 207.01zM127.975 230.005L166.02 191.965H127.975V230.005zM168 23.995H23.995V231.955H103.98V179.965C103.98 173.315 109.33 167.97 115.98 167.97H168V23.995zM112 124V113.6C112 95.86 118.44 79.155 130.14 66.555C131.65 64.93 133.775 64 136 64S140.35 64.93 141.86 66.555C153.565 79.155 160 95.86 160 113.6V124C160 126.21 158.21 128 156 128H148C145.79 128 144 126.21 144 124V113.6C144 103.465 141.15 93.515 136 85.16C130.85 93.51 128 103.465 128 113.6V124C128 126.21 126.21 128 124 128H116C113.79 128 112 126.21 112 124zM60 128H56C42.745 128 32 117.255 32 104V88C32 74.745 42.745 64 56 64H60C62.21 64 64 65.79 64 68V76C64 78.21 62.21 80 60 80H56C51.58 80 48 83.58 48 88V104C48 108.42 51.58 112 56 112H60C62.21 112 64 113.79 64 116V124C64 126.21 62.21 128 60 128zM89.725 106.765C89.035 107.36 88.665 108.04 88.665 108.685C88.665 110.245 90.89 111.995 93.87 111.995H100C102.21 111.995 104 113.785 104 115.995V123.995C104 126.205 102.21 127.995 100 127.995H93.865C82.17 127.995 72.66 119.33 72.66 108.685C72.66 103.355 75.09 98.225 79.325 94.615L90.27 85.23C90.96 84.635 91.33 83.955 91.33 83.31C91.33 81.75 89.105 80 86.125 80H80C77.79 80 76 78.21 76 76V68C76 65.79 77.79 64 80 64H86.135C97.83 64 107.34 72.665 107.34 83.31C107.34 88.64 104.91 93.77 100.675 97.38L89.725 106.765z" />
    <glyph glyph-name="trash-2"
      unicode="&#xEA1E;"
      horiz-adv-x="256" d="M190.8 216L173.8 244.35C169.45 251.6 161.65 256 153.2 256H102.8C94.35 256 86.55 251.6 82.2 244.35L65.2 216H20C13.35 216 8 210.65 8 204V198C8 194.7 10.7 192 14 192H22.2L38 21.8C39.15 9.45 49.5 0 61.9 0H194.15C206.55 0 216.9 9.45 218.05 21.8L233.8 192H242C245.3 192 248 194.7 248 198V204C248 210.65 242.65 216 236 216H190.8zM102.8 232H153.2L162.8 216H93.2L102.8 232zM194.1 24H61.9L46.3 192H209.65L194.1 24z" />
    <glyph glyph-name="trash-3"
      unicode="&#xEA1F;"
      horiz-adv-x="224" d="M0 214V228C0 234.65 5.35 240 12 240H68L72.7 249.35C74.7 253.45 78.85 256 83.4 256H140.55C145.1 256 149.25 253.45 151.3 249.35L156 240H212C218.65 240 224 234.65 224 228V214C224 210.7 221.3 208 218 208H6C2.7 208 0 210.7 0 214zM207.6 185.65L197.4 22.5C196.6 9.85 186.1 0 173.45 0H50.55C37.9 0 27.4 9.85 26.6 22.5L16.4 185.65C16.2 189.1 18.95 192 22.4 192H201.65C205.05 192 207.8 189.1 207.6 185.65z" />
    <glyph glyph-name="file-recent"
      unicode="&#xEA21;"
      horiz-adv-x="191.9625073227885" d="M184.9138840070299 207.0095684436634L142.9720757664519 248.9513766842414A23.995313415348562 23.995313415348562 0 0 1 126.0253856668619 256H23.9953134153486A24.07629759812536 24.07629759812536 0 0 1 0 231.9546963483695V23.9953134153486A24.0013122437024 24.0013122437024 0 0 1 23.9953134153486 0H167.9671939074399A24.0013122437024 24.0013122437024 0 0 1 191.9625073227885 23.9953134153486V190.0128881077915A24.11229056824839 24.11229056824839 0 0 1 184.9138840070299 207.0095684436634zM166.0175746924429 191.9625073227885H127.975004881859V230.0050771333724zM23.9953134153486 23.9953134153486V231.9546963483695H103.9796914665105V179.9648506151143A11.968662370630737 11.968662370630737 0 0 1 115.9773481741847 167.9671939074399H167.9671939074399V23.9953134153486zM146.9148057020113 153.9699277484866H136.8602694786175A5.05601249755907 5.05601249755907 0 0 1 131.8112556141379 148.6709627025971L132.3326537785589 137.7770904120289A55.13923061901973 55.13923061901973 0 1 1 132.0237141183363 56.2020230423746A5.0620113259129065 5.0620113259129065 0 0 1 132.2176762351103 63.5375903143917L125.0135832845147 70.7466822886155A5.058012107010349 5.058012107010349 0 0 1 118.1044327279828 70.9711384495216A34.843194688537395 34.843194688537395 0 1 0 120.7074243311853 120.7419175942199L104.6720562390158 121.5107674282367A5.05651239992189 5.05651239992189 0 0 1 99.3730911931263 116.4617535637571V106.3992189025581A5.0620113259129065 5.0620113259129065 0 0 1 104.4296035930482 101.3422066002734H146.9153056043741A5.0620113259129065 5.0620113259129065 0 0 1 151.9703182972076 106.3992189025581V148.9129154462019A5.0620113259129065 5.0620113259129065 0 0 1 146.9148057020113 153.9699277484866z" />
    <glyph glyph-name="sign-out"
      unicode="&#xEA22;"
      horiz-adv-x="256" d="M90 32H48C21.5 32 0 53.5 0 80V176C0 202.5 21.5 224 48 224H90C93.3 224 96 221.3 96 218V198C96 194.7 93.3 192 90 192H48C39.15 192 32 184.85 32 176V80C32 71.15 39.15 64 48 64H90C93.3 64 96 61.3 96 58V38C96 34.7 93.3 32 90 32zM148.95 183.55L187.75 148H92C85.35 148 80 142.65 80 136V120C80 113.35 85.35 108 92 108H187.75L148.95 72.45C143.9 67.85 143.75 59.95 148.55 55.1L159.5 44.15C164.15 39.5 171.75 39.45 176.45 44.1L252.45 119.5C257.2 124.2 257.2 131.85 252.45 136.55L176.5 211.85C171.8 216.5 164.25 216.5 159.55 211.8L148.6 200.85C143.75 196.05 143.95 188.15 148.95 183.55z" />
    <glyph glyph-name="ellipsis-h"
      unicode="&#xEA23;"
      horiz-adv-x="256" d="M152 128C152 114.75 141.25 104 128 104S104 114.75 104 128S114.75 152 128 152S152 141.25 152 128zM212 152C198.75 152 188 141.25 188 128S198.75 104 212 104S236 114.75 236 128S225.25 152 212 152zM44 152C30.75 152 20 141.25 20 128S30.75 104 44 104S68 114.75 68 128S57.25 152 44 152z" />
    <glyph glyph-name="ellipsis-v"
      unicode="&#xEA24;"
      horiz-adv-x="64" d="M32 152C45.25 152 56 141.25 56 128S45.25 104 32 104S8 114.75 8 128S18.75 152 32 152zM8 204C8 190.75 18.75 180 32 180S56 190.75 56 204S45.25 228 32 228S8 217.25 8 204zM8 52C8 38.75 18.75 28 32 28S56 38.75 56 52S45.25 76 32 76S8 65.25 8 52z" />
    <glyph glyph-name="link"
      unicode="&#xEA25;"
      horiz-adv-x="256" d="M157.111 157.11C182.6565 131.5645 184.2995 90.9665 161.986 63.53C158.865 59.665 160.594 61.5975 119.516 20.52C92.168 -6.828 47.883 -6.8525 20.521 20.52C-6.8345 47.865 -6.846 92.1475 20.521 119.515C36.9075 135.9015 46.4385 145.4645 52.2255 151.2435C55.957 154.9695 62.391 152.4205 62.4685 147.1475A86.655 86.655 0 0 1 64.8415 128.2335C65.3245 126.219 64.7055 124.099 63.2405 122.6345L40.316 99.715C23.9385 83.3275 23.8725 56.769 40.316 40.315C56.7035 23.9375 83.262 23.8715 99.716 40.315L137.311 77.915C153.67 94.2775 153.6995 120.9215 137.311 137.31A41.861 41.861 0 0 1 125.904 145.4245C123.5925 146.541 122.313 149.0495 122.6235 151.5975C123.3015 157.1585 125.7715 162.54 130.031 166.8L132.2185 168.9875C134.031 170.8005 136.807 171.2845 139.0985 170.1345C145.598 166.8725 151.692 162.529 157.111 157.11zM235.479 235.48C208.117 262.8525 163.832 262.828 136.484 235.48C95.406 194.402 97.135 196.335 94.014 192.47C71.7005 165.0335 73.3435 124.4355 98.889 98.89C104.308 93.471 110.402 89.1275 116.9015 85.8655C119.1925 84.7155 121.9685 85.2 123.7815 87.0125L125.969 89.2C130.229 93.4595 132.6985 98.8415 133.3765 104.4025C133.687 106.9505 132.4075 109.459 130.096 110.5755A41.853 41.853 0 0 0 118.689 118.69C102.3005 135.0785 102.33 161.7225 118.689 178.085L156.2840000000001 215.685C172.7380000000001 232.1285 199.2965 232.0625 215.6840000000001 215.685C232.1275000000001 199.231 232.0615000000001 172.6725 215.6840000000001 156.285L192.7600000000001 133.365C191.2950000000001 131.9005 190.6760000000001 129.7805 191.1590000000001 127.766A86.655 86.655 0 0 0 193.5320000000001 108.852C193.6095 103.579 200.0435000000001 101.03 203.775 104.756C209.5620000000001 110.535 219.0930000000001 120.098 235.4795000000001 136.4845C262.846 163.852 262.8345000000001 208.1345 235.4790000000001 235.48z" />
    <glyph glyph-name="external-link"
      unicode="&#xEA26;"
      horiz-adv-x="288" d="M288 248.8L287.913 167.2C287.913 163.2235 284.6895 160 280.713 160H264.06C260.0265 160 256.7800000000001 163.313 256.8615 167.3455L258.22 204.159L257.189 205.19L117.7575 65.7575C115.4145 63.4145 111.6155 63.4145 109.272 65.7575L97.7575 77.272C95.4145 79.615 95.4145 83.414 97.7575 85.7575L237.1895 225.1895L236.1585 226.2205L199.3455 224.862C195.313 224.78 192 228.027 192 232.0605V248.713C192 252.6895 195.2235 255.913 199.2 255.913L280.8 256C284.7765 256 288 252.7765 288 248.8zM213.7575 139.13L201.7575 127.13A6.001 6.001 0 0 1 200 122.8875V27A3 3 0 0 0 197 24H27A3 3 0 0 0 24 27V197A3 3 0 0 0 27 200H177.988C183.3335 200 186.0105 206.463 182.2305 210.2425L170.2305 222.2425A6.001 6.001 0 0 1 165.988 224H24C10.745 224 0 213.255 0 200V24C0 10.745 10.745 0 24 0H200C213.255 0 224 10.745 224 24V134.8875C224 140.233 217.537 142.91 213.7575 139.13z" />
    <glyph glyph-name="filter"
      unicode="&#xEA27;"
      horiz-adv-x="256" d="M231.976 256H24.0285C2.7095 256 -8.047 230.1345 7.058 215.0295L88 134.059V48C88 40.446 91.5565 33.3325 97.6 28L129.6 4.467C145.2365 -6.4605 168 3.698 168 23.667V134.059L248.9465 215.0295C264.021 230.104 253.3375 256 231.976 256zM144 144V24L112 48V144L24 232H232L144 144z" />
    <glyph glyph-name="info-circle"
      unicode="&#xEA28;"
      horiz-adv-x="256" d="M128 252C59.5215 252 4 196.4585 4 128C4 59.5015 59.5215 4 128 4S252 59.5015 252 128C252 196.4585 196.4785 252 128 252zM128 28C72.734 28 28 72.7155 28 128C28 183.2475 72.736 228 128 228C183.2455 228 228 183.2645 228 128C228 72.735 183.2845 28 128 28zM128 197C139.598 197 149 187.598 149 176S139.598 155 128 155S107 164.402 107 176S116.402 197 128 197zM156 70C156 66.6865 153.3135 64 150 64H106C102.6865 64 100 66.6865 100 70V82C100 85.3135 102.6865 88 106 88H112V120H106C102.6865 120 100 122.6865 100 126V138C100 141.3135 102.6865 144 106 144H138C141.3135 144 144 141.3135 144 138V88H150C153.3135 88 156 85.3135 156 82V70z" />
    <glyph glyph-name="magic"
      unicode="&#xEA29;"
      horiz-adv-x="256" d="M41.55 5.85L5.85 41.55C-1.95 49.35 -1.95 62 5.85 69.85L186.15 250.15C193.95 257.95 206.6 257.95 214.45 250.15L250.1500000000001 214.45C257.9500000000001 206.65 257.9500000000001 194 250.1500000000001 186.15L69.85 5.85C62.05 -1.95 49.4 -1.95 41.55 5.85zM174.55 144.5L144.5 174.55L25.65 55.7L55.7 25.65L174.55 144.5zM230.35 200.3L200.3 230.35L161.45 191.5L191.5 161.45L230.35 200.3zM69.45 236.35L63.6 224.45L50.5 222.55C48.15 222.2 47.2 219.3 48.9 217.65L58.4 208.4L56.15 195.35C55.75 193 58.2 191.2 60.3 192.3L72 198.5L83.7 192.35C85.8 191.25 88.25 193.05 87.85 195.4L85.6 208.45L95.1 217.7C96.8 219.35 95.85 222.25 93.5 222.6L80.4 224.5L74.55 236.4C73.55 238.45 70.5 238.45 69.45 236.35zM118.3 246.7L114.4 238.8L105.65 237.5C104.1 237.25 103.45 235.35 104.6 234.25L110.9 228.1L109.4 219.4C109.15 217.85 110.8 216.65 112.2 217.4L120 221.5L127.8 217.4C129.2 216.65 130.85 217.85 130.6 219.4L129.1 228.1L135.4 234.25C136.55 235.35 135.9 237.3 134.35 237.5L125.6 238.75L121.7 246.65C121 248.15 119 248.15 118.3 246.7zM22.3 246.7L18.4 238.8L9.65 237.5C8.1 237.25 7.45 235.35 8.6 234.25L14.9 228.1L13.4 219.4C13.15 217.85 14.8 216.65 16.2 217.4L24 221.5L31.8 217.4C33.2 216.65 34.85 217.85 34.6 219.4L33.1 228.1L39.4 234.25C40.55 235.35 39.9 237.3 38.35 237.5L29.6 238.75L25.7 246.65C25 248.15 23 248.15 22.3 246.7zM230.3 134.95L226.4 127.05L217.65 125.8C216.1 125.55 215.45 123.65 216.6 122.55L222.9 116.4L221.4 107.7C221.15 106.15 222.8 104.95 224.2 105.7L232.0000000000001 109.8L239.8000000000001 105.7C241.2000000000001 104.95 242.8500000000001 106.15 242.6000000000001 107.7L241.1000000000001 116.4L247.4000000000001 122.55C248.5500000000001 123.65 247.9000000000001 125.6 246.3500000000001 125.8L237.6000000000001 127.05L233.7000000000001 134.95C233.0000000000001 136.35 231.0000000000001 136.35 230.3000000000001 134.95z" />
    <glyph glyph-name="copy"
      unicode="&#xEA2A;"
      horiz-adv-x="224" d="M216.9705 223.0295L191.0295 248.9705A24 24 0 0 1 174.059 256H88C74.745 256 64 245.255 64 232V208H24C10.745 208 0 197.255 0 184V24C0 10.745 10.745 0 24 0H136C149.255 0 160 10.745 160 24V48H200C213.255 48 224 58.745 224 72V206.059A24 24 0 0 1 216.9705 223.0295zM133 24H27A3 3 0 0 0 24 27V181A3 3 0 0 0 27 184H64V72C64 58.745 74.745 48 88 48H136V27A3 3 0 0 0 133 24zM197 72H91A3 3 0 0 0 88 75V229A3 3 0 0 0 91 232H144V188C144 181.3725 149.3725 176 156 176H200V75A3 3 0 0 0 197 72zM200 200H168V232H172.816C173.6115 232 174.3745 231.684 174.9375 231.1215L199.1215 206.9375A3 3 0 0 0 200 204.816V200z" />
    <glyph glyph-name="chart-pie"
      unicode="&#xEA2B;"
      horiz-adv-x="272" d="M140 232C190.8 232 232 190.8 232 140H140V232M116 208V116L181.05 50.95C164.4 34.3 141.4 24 116 24C65.2 24 24 65.2 24 116S65.2 208 116 208M248 116C248 91.05 238.5 66.1 219.45 47.05L150.5 116H248M116 250V232C51.95 232 0 180.1 0 116C0 51.95 51.9 0 116 0C147.05 0 176.35 12.3 198.05 33.95L198.35 34.25L202.5 30.1L215.25 17.35C217.6 15 221.4 15 223.75 17.35L236.5000000000001 30.1C259.5 53.1 272.1 83.9 272.1 116V134C272.1 137.3 269.4000000000001 140 266.1 140H256.1C256.1 155.65 253.05 170.85 246.95 185.15C235.5 212.1 213.75 234.8 185.15 246.85C170.85 252.95 155.65 256 140 256H122C118.7 256 116 253.3 116 250z" />
    <glyph glyph-name="check-circle"
      unicode="&#xEA2C;"
      horiz-adv-x="256" d="M128 252C59.5165 252 4 196.4835 4 128S59.5165 4 128 4S252 59.5165 252 128S196.4835 252 128 252zM128 228C183.266 228 228 183.2745 228 128C228 72.734 183.2745 28 128 28C72.734 28 28 72.7255 28 128C28 183.266 72.7255 228 128 228M198.102 162.8665L186.834 174.2255C184.5005 176.578 180.7015 176.5935 178.349 174.2595L107.673 104.1515L77.777 134.29C75.4435 136.6425 71.6445 136.658 69.292 134.3245L57.9325 123.0565C55.58 120.723 55.5645 116.924 57.8985 114.571L103.289 68.813C105.6225 66.4605 109.4215 66.445 111.774 68.779L198.0685 154.381C200.4205 156.715 200.4355 160.514 198.102 162.8665z" />
    <glyph glyph-name="check"
      unicode="&#xEA2D;"
      horiz-adv-x="256" d="M217.924 214.267L86.402 82.745L38.076 131.071C35.733 133.414 31.934 133.414 29.5905 131.071L15.4485 116.929C13.1055 114.586 13.1055 110.787 15.4485 108.4435L82.159 41.733C84.502 39.39 88.301 39.39 90.6445 41.733L240.551 191.6395C242.894 193.9825 242.894 197.7815 240.551 200.125L226.409 214.267C224.066 216.61 220.267 216.61 217.924 214.267z" />
    <glyph glyph-name="circle"
      unicode="&#xEA2E;"
      horiz-adv-x="256" d="M128 252C59.5 252 4 196.5 4 128S59.5 4 128 4S252 59.5 252 128S196.5 252 128 252zM128 28C72.75 28 28 72.75 28 128S72.75 228 128 228S228 183.25 228 128S183.25 28 128 28z" />
    <glyph glyph-name="shopping-cart"
      unicode="&#xEA2F;"
      horiz-adv-x="288" d="M275.9955 224H72.14L67.777 246.304C66.675 251.936 61.739 256 56 256H6C2.6865 256 0 253.3135 0 250V238C0 234.6865 2.6865 232 6 232H46.12L80.917 54.1495C75.398 48.3995 72 40.599 72 32C72 14.327 86.327 0 104 0S136 14.327 136 32A31.8405 31.8405 0 0 1 131.7085 48H204.292A31.8405 31.8405 0 0 1 200.0005 32C200.0005 14.327 214.3275 0 232.0005 0C249.6735 0 264.0005 14.327 264.0005 32C264.0005 41.068 260.2225 49.248 254.1625 55.071L254.68 57.4495C256.307 64.9295 250.609 72 242.954 72H101.88L97.185 96H253.3875C259.0325 96 263.9145 99.9345 265.1135 105.451L287.7215 209.451C289.3475000000001 216.9305 283.6495 224 275.9955 224zM104 20C97.383 20 92 25.383 92 32S97.383 44 104 44S116 38.617 116 32S110.617 20 104 20zM232 20C225.383 20 220 25.383 220 32S225.383 44 232 44S244 38.617 244 32S238.617 20 232 20zM243.719 120H92.49L76.835 200H261.109L243.719 120z" />
    <glyph glyph-name="cart-plus"
      unicode="&#xEA30;"
      horiz-adv-x="288" d="M275.9955 224H72.14L67.777 246.304C66.675 251.936 61.739 256 56 256H6C2.6865 256 0 253.3135 0 250V238C0 234.6865 2.6865 232 6 232H46.12L80.917 54.1495C75.398 48.3995 72 40.599 72 32C72 14.327 86.327 0 104 0S136 14.327 136 32A31.8405 31.8405 0 0 1 131.7085 48H204.292A31.8405 31.8405 0 0 1 200.0005 32C200.0005 14.327 214.3275 0 232.0005 0S264.0005 14.327 264.0005 32C264.0005 41.068 260.2225 49.248 254.1625 55.071L254.68 57.4495C256.307 64.9295 250.609 72 242.954 72H101.88L97.185 96H253.3875C259.0325 96 263.9145 99.9345 265.1135 105.451L287.7215 209.451C289.3475000000001 216.9305 283.6495 224 275.9955 224zM232 44C238.617 44 244 38.617 244 32S238.617 20 232 20S220 25.383 220 32S225.383 44 232 44zM104 44C110.617 44 116 38.617 116 32S110.617 20 104 20S92 25.383 92 32S97.383 44 104 44zM243.719 120H92.49L76.835 200H261.109L243.719 120zM136 156V164C136 167.3135 138.6865 170 142 170H158V186C158 189.3135 160.6865 192 164 192H172C175.3135 192 178 189.3135 178 186V170H194C197.3135 170 200 167.3135 200 164V156C200 152.6865 197.3135 150 194 150H178V134C178 130.6865 175.3135 128 172 128H164C160.6865 128 158 130.6865 158 134V150H142C138.6865 150 136 152.6865 136 156z" />
    <glyph glyph-name="cart-arrow-down"
      unicode="&#xEA31;"
      horiz-adv-x="288" d="M275.9955 224H72.14L67.777 246.304C66.675 251.936 61.739 256 56 256H6C2.6865 256 0 253.3135 0 250V238C0 234.6865 2.6865 232 6 232H46.12L80.917 54.1495C75.398 48.3995 72 40.599 72 32C72 14.327 86.327 0 104 0S136 14.327 136 32A31.8405 31.8405 0 0 1 131.7085 48H204.292A31.8405 31.8405 0 0 1 200.0005 32C200.0005 14.327 214.3275 0 232.0005 0C249.6735 0 264.0005 14.327 264.0005 32C264.0005 41.068 260.2225 49.248 254.1625 55.071L254.68 57.4495C256.307 64.9295 250.609 72 242.954 72H101.88L97.185 96H253.3875C259.0325 96 263.9145 99.9345 265.1135 105.451L287.7215 209.451C289.3475000000001 216.9305 283.6495 224 275.9955 224zM104 20C97.383 20 92 25.383 92 32S97.383 44 104 44S116 38.617 116 32S110.617 20 104 20zM232 20C225.383 20 220 25.383 220 32S225.383 44 232 44S244 38.617 244 32S238.617 20 232 20zM243.719 120H92.49L76.835 200H261.109L243.719 120zM197.7575 149.7575L172.243 124.243C169.9 121.9 166.101 121.9 163.7575 124.243L138.243 149.7575C134.463 153.5375 137.14 160 142.4855 160H156V186C156 189.3135 158.6865 192 162 192H174C177.3135 192 180 189.3135 180 186V160H193.5145C198.86 160 201.537 153.537 197.7575 149.7575z" />
    <glyph glyph-name="bars"
      unicode="&#xEA32;"
      horiz-adv-x="224" d="M218 194H6C2.6865 194 0 196.6865 0 200V216C0 219.3135 2.6865 222 6 222H218C221.3135 222 224 219.3135 224 216V200C224 196.6865 221.3135 194 218 194zM218 114H6C2.6865 114 0 116.6865 0 120V136C0 139.3135 2.6865 142 6 142H218C221.3135 142 224 139.3135 224 136V120C224 116.6865 221.3135 114 218 114zM218 34H6C2.6865 34 0 36.6865 0 40V56C0 59.3135 2.6865 62 6 62H218C221.3135 62 224 59.3135 224 56V40C224 36.6865 221.3135 34 218 34z" />
    <glyph glyph-name="times-circle"
      unicode="&#xEA33;"
      horiz-adv-x="256" d="M128 252C59.5 252 4 196.5 4 128S59.5 4 128 4S252 59.5 252 128S196.5 252 128 252zM128 28C72.75 28 28 72.75 28 128S72.75 228 128 228S228 183.25 228 128S183.25 28 128 28zM178.9 159.1L147.8 128L178.9 96.9C181.25 94.55 181.25 90.75 178.9 88.4L167.6 77.1C165.25 74.75 161.45 74.75 159.1 77.1L128 108.2L96.9 77.1C94.55 74.75 90.75 74.75 88.4 77.1L77.1 88.4C74.75 90.75 74.75 94.55 77.1 96.9L108.2 128L77.1 159.1C74.75 161.45 74.75 165.25 77.1 167.6L88.4 178.9C90.75 181.25 94.55 181.25 96.9 178.9L128 147.8L159.1 178.9C161.45 181.25 165.25 181.25 167.6 178.9L178.9 167.6C181.25 165.25 181.25 161.45 178.9 159.1z" />
    <glyph glyph-name="times"
      unicode="&#xEA34;"
      horiz-adv-x="192" d="M115.8 128L180.85 193.05C183.2 195.4 183.2 199.2 180.85 201.55L169.55 212.85C167.2 215.2 163.4 215.2 161.05 212.85L96 147.8L30.95 212.85C28.6 215.2 24.8 215.2 22.45 212.85L11.15 201.55C8.8 199.2 8.8 195.4 11.15 193.05L76.2 128L11.15 62.95C8.8 60.6 8.8 56.8 11.15 54.45L22.45 43.15C24.8 40.8 28.6 40.8 30.95 43.15L96 108.2L161.05 43.15C163.4 40.8 167.2 40.8 169.55 43.15L180.85 54.45C183.2 56.8 183.2 60.6 180.85 62.95L115.8 128z" />
    <glyph glyph-name="chevron-up"
      unicode="&#xEA35;"
      horiz-adv-x="224" d="M3.0505 76.3535L12.95 66.454C15.293 64.111 19.092 64.111 21.4355 66.454L112 156.8035L202.565 66.4545C204.908 64.1115 208.707 64.1115 211.0505 66.4545L220.95 76.354C223.293 78.697 223.293 82.496 220.95 84.8395L116.2425 189.546C113.8995 191.889 110.1005 191.889 107.757 189.546L3.0505 84.839C0.707 82.4955 0.707 78.6965 3.0505 76.3535z" />
    <glyph glyph-name="angle-up"
      unicode="&#xEA36;"
      horiz-adv-x="160" d="M84.25 173.9L158.25 100.5C160.6 98.15 160.6 94.35 158.25 92L148.35 82.1C146 79.75 142.2 79.75 139.85 82.1L80 141.35L20.15 82.1C17.8 79.75 14 79.75 11.65 82.1L1.75 92C-0.6 94.35 -0.6 98.15 1.75 100.5L75.75 173.9C78.1 176.25 81.9 176.25 84.25 173.9z" />
    <glyph glyph-name="app-carbon"
      unicode="&#xEA37;"
      horiz-adv-x="278.63945578231295" d="M117.5510204081633 126.9899319727891L117.6511564625851 126.6808163265306A22.76136054421769 22.76136054421769 0 0 0 111.5863945578231 108.8914285714286A25.086258503401368 25.086258503401368 0 0 0 93.6968707482993 102.9790476190476A25.508571428571432 25.508571428571432 0 0 0 74.7668027210885 110.0103401360544A27.080272108843534 27.080272108843534 0 0 0 67.7616326530612 129.9809523809524V151.9063945578231A27.829115646258508 27.829115646258508 0 0 0 74.5360544217687 171.9031292517007A24.09795918367347 24.09795918367347 0 0 0 92.821768707483 179.0084353741497A26.80598639455783 26.80598639455783 0 0 0 111.4557823129252 173.1178231292517A22.321632653061226 22.321632653061226 0 0 0 117.7469387755102 155.3023129251701L117.6424489795919 155.0019047619048H103.7496598639456A15.133605442176872 15.133605442176872 0 0 1 101.2375510204082 164.9502040816327A10.731972789115648 10.731972789115648 0 0 1 92.8391836734694 167.7931972789116A9.142857142857144 9.142857142857144 0 0 1 84.7717006802721 163.9096598639456A21.093877551020416 21.093877551020416 0 0 1 82.0810884353742 152.0108843537415V129.9809523809524A20.027210884353746 20.027210884353746 0 0 1 84.9719727891157 118.0299319727891A10.183401360544218 10.183401360544218 0 0 1 93.6794557823129 114.1420408163265A9.408435374149661 9.408435374149661 0 0 1 101.3420408163265 116.9632653061224A16.07836734693878 16.07836734693878 0 0 1 103.6756462585034 126.9768707482993zM179.0650340136055 130.6383673469388A27.393741496598643 27.393741496598643 0 0 0 171.7028571428572 110.2889795918367A26.5578231292517 26.5578231292517 0 0 0 152.1110204081633 102.9790476190476A26.379319727891165 26.379319727891165 0 0 0 132.5757823129252 110.2889795918367A27.506938775510207 27.506938775510207 0 0 0 125.2658503401361 130.6383673469388V151.2489795918367A27.763809523809524 27.763809523809524 0 0 0 132.5496598639456 171.6244897959184A26.179047619047626 26.179047619047626 0 0 0 152.0631292517007 179.0258503401361A26.531700680272117 26.531700680272117 0 0 0 171.6810884353742 171.6244897959184A27.550476190476193 27.550476190476193 0 0 0 179.0824489795919 151.2489795918367zM164.8021768707483 151.3970068027211A19.26965986394558 19.26965986394558 0 0 1 161.5325170068028 163.5874829931973A11.393741496598643 11.393741496598643 0 0 1 152.0631292517007 167.6974149659864A11.119455782312926 11.119455782312926 0 0 1 142.6721088435375 163.6136054421768A19.8487074829932 19.8487074829932 0 0 1 139.5287074829932 151.4231292517007V130.6644897959184A20.04897959183674 20.04897959183674 0 0 1 142.698231292517 118.3303401360544A11.17605442176871 11.17605442176871 0 0 1 152.1110204081633 114.2204081632653A11.319727891156466 11.319727891156466 0 0 1 161.5804081632653 118.3303401360544A19.805170068027216 19.805170068027216 0 0 1 164.8021768707483 130.6644897959184zM212.8979591836735 91.2021768707483H186.5186394557823V96.7619047619048L198.4391836734694 111.825850340136A33.08843537414967 33.08843537414967 0 0 1 202.0963265306123 117.7469387755102A11.184761904761906 11.184761904761906 0 0 1 203.2065306122449 122.2704761904762A8.045714285714288 8.045714285714288 0 0 1 202.1268027210885 126.7243537414966A3.718095238095238 3.718095238095238 0 0 1 198.7961904761905 128.3657142857143A3.9706122448979593 3.9706122448979593 0 0 1 195.2 126.275918367347A10.226938775510208 10.226938775510208 0 0 1 193.941768707483 120.938231292517H185.7480272108844L185.6609523809524 121.1167346938776A13.63591836734694 13.63591836734694 0 0 0 189.1439455782313 130.8952380952381A12.342857142857143 12.342857142857143 0 0 0 198.7918367346939 134.9050340136055A12.769523809523811 12.769523809523811 0 0 0 208.2742857142857 131.5178231292517A12.512653061224492 12.512653061224492 0 0 0 211.6310204081633 122.2965986394558A14.106122448979598 14.106122448979598 0 0 0 209.6936054421769 115.0476190476191A75.02802721088436 75.02802721088436 0 0 0 203.2021768707483 106.2008163265306L197.3420408163266 97.7110204081633H212.8979591836735zM278.6046258503402 124.5170068027211C278.6046258503402 124.8130612244898 278.639455782313 125.1047619047619 278.639455782313 125.3877551020408H278.5697959183674A62.69387755102043 62.69387755102043 0 0 1 236.7129251700681 182.8136054421769A48.674829931972795 48.674829931972795 0 0 1 178.3292517006803 227.1346938775511A76.62585034013607 76.62585034013607 0 0 1 43.4068027210884 195.134693877551A69.61197278911567 69.61197278911567 0 0 1 0.065306122449 132.3537414965986H0C0 132.0663945578231 0.0304761904762 131.7877551020408 0.0348299319728 131.4829931972789S0 130.9126530612245 0 130.6122448979592H0.0696598639456A62.69387755102043 62.69387755102043 0 0 1 41.9265306122449 73.1863945578231A48.674829931972795 48.674829931972795 0 0 1 100.3102040816327 28.8653061224489A76.62585034013607 76.62585034013607 0 0 1 235.2326530612245 60.8653061224489A69.61632653061226 69.61632653061226 0 0 1 278.574149659864 123.6462585034013H278.639455782313C278.639455782313 123.9336054421768 278.6089795918368 124.2122448979592 278.6046258503402 124.5170068027211zM215.9455782312925 77.1047619047619V76.625850340136A55.727891156462604 55.727891156462604 0 0 0 108.669387755102 55.4666666666666A27.863945578231302 27.863945578231302 0 0 0 66.5251700680272 90.7319727891156A37.60326530612246 37.60326530612246 0 0 0 62.6938775510204 90.5578231292517A41.79591836734695 41.79591836734695 0 0 0 20.9414965986394 131.5221768707483A48.76190476190477 48.76190476190477 0 0 0 62.6938775510204 178.8952380952381V179.3741496598639A55.727891156462604 55.727891156462604 0 0 0 169.9700680272109 200.5333333333333A27.863945578231302 27.863945578231302 0 0 0 212.1142857142858 165.2680272108843A37.60326530612246 37.60326530612246 0 0 0 215.9455782312926 165.4421768707483A41.79591836734695 41.79591836734695 0 0 0 257.6979591836735 124.4778231292517A48.76190476190477 48.76190476190477 0 0 0 215.9455782312925 77.1047619047619z" />
    <glyph glyph-name="app-wawste"
      unicode="&#xEA38;"
      horiz-adv-x="232.764" d="M113.412 12.4V16H50.944A8 8 0 0 0 42.944 23.452L32.564 176H175.436L172.692 135.752H188.728L191.472 176H208V208A16 16 0 0 1 192 224H144V240A16 16 0 0 1 128 256H80A16 16 0 0 1 64 240V224H16A16 16 0 0 1 0 208V176H16.528L27.004 22.368A24.06 24.06 0 0 1 50.944 0H118.084A18.968 18.968 0 0 0 113.412 12.4zM80 240H128V224H80zM16 192V208H192V192zM67.976 152.612L75.976 48.612A8 8 0 0 0 68.612 40.024C68.4 40 68.196 40 68 40A8 8 0 0 0 60.032 47.388L52.032 151.388A8 8 0 0 0 67.984 152.612zM155.976 151.388L154.776 135.752H138.728L140.024 152.612A8 8 0 1 0 155.976 151.388zM104 160A8 8 0 0 0 112 152V48A8 8 0 0 0 96 48V152A8 8 0 0 0 104 160zM220.74 128.628H132.56A12.028 12.028 0 0 1 120.536 116.604V12.4A12.028 12.028 0 0 1 132.56 0.376H220.74A12.024 12.024 0 0 1 232.764 12.4V116.604A12.024 12.024 0 0 1 220.74 128.628zM136.032 114.196H217.272A1.436 1.436 0 0 0 218.704 112.764V85.524H134.596V112.764A1.44 1.44 0 0 0 136.032 114.196zM217.272 14.8H136.032A1.44 1.44 0 0 0 134.596 16.232V74.056H218.704V16.232A1.436 1.436 0 0 0 217.272 14.8zM161.36 61.632V52.072A2.88 2.88 0 0 0 158.492 49.204H148.932A2.8760000000000003 2.8760000000000003 0 0 0 146.068 52.072V61.632A2.872 2.872 0 0 0 148.932 64.496H158.492A2.8760000000000003 2.8760000000000003 0 0 0 161.36 61.632zM184.296 61.632V52.072A2.8760000000000003 2.8760000000000003 0 0 0 181.428 49.204H171.872A2.88 2.88 0 0 0 169.004 52.072V61.632A2.8760000000000003 2.8760000000000003 0 0 0 171.872 64.496H181.428A2.872 2.872 0 0 0 184.296 61.632zM207.236 61.632V29.136A2.8760000000000003 2.8760000000000003 0 0 0 204.368 26.268H194.8A2.872 2.872 0 0 0 191.932 29.136V61.632A2.872 2.872 0 0 0 194.8 64.496H204.356A2.8760000000000003 2.8760000000000003 0 0 0 207.236 61.632zM161.36 38.692V29.136A2.8760000000000003 2.8760000000000003 0 0 0 158.492 26.268H148.932A2.872 2.872 0 0 0 146.068 29.136V38.692A2.8760000000000003 2.8760000000000003 0 0 0 148.932 41.56H158.492A2.88 2.88 0 0 0 161.36 38.692zM184.296 38.692V29.136A2.872 2.872 0 0 0 181.428 26.268H171.872A2.8760000000000003 2.8760000000000003 0 0 0 169.004 29.136V38.692A2.88 2.88 0 0 0 171.872 41.56H181.428A2.8760000000000003 2.8760000000000003 0 0 0 184.296 38.692z" />
    <glyph glyph-name="angle-left"
      unicode="&#xEA39;"
      horiz-adv-x="96" d="M2.1 132.25L75.5 206.25C77.85 208.6 81.65 208.6 84 206.25L93.9 196.35C96.25 194 96.25 190.2 93.9 187.85L34.65 128L93.9 68.15C96.25 65.8 96.25 62 93.9 59.65L84 49.75C81.65 47.4 77.85 47.4 75.5 49.75L2.1 123.75C-0.25 126.1 -0.25 129.9 2.1 132.25z" />
    <glyph glyph-name="angle-right"
      unicode="&#xEA3A;"
      horiz-adv-x="96" d="M93.9 123.75L20.5 49.75C18.15 47.4 14.35 47.4 12 49.75L2.1 59.65C-0.25 62 -0.25 65.8 2.1 68.15L61.35 128L2.1 187.85C-0.25 190.2 -0.25 194 2.1 196.35L12 206.25C14.35 208.6 18.15 208.6 20.5 206.25L93.9 132.25C96.25 129.9 96.25 126.1 93.9 123.75z" />
    <glyph glyph-name="chevron-left"
      unicode="&#xEA3B;"
      horiz-adv-x="128" d="M115.6465 19.0505L125.546 28.95C127.889 31.293 127.889 35.092 125.546 37.4355L35.1965 128L125.546 218.565C127.889 220.908 127.889 224.707 125.546 227.0505L115.6465 236.95C113.3035 239.293 109.5045 239.293 107.161 236.95L2.454 132.2425C0.111 129.8995 0.111 126.1005 2.454 123.757L107.161 19.05C109.5045 16.707 113.3035 16.707 115.6465 19.0505z" />
    <glyph glyph-name="chevron-right"
      unicode="&#xEA3C;"
      horiz-adv-x="128" d="M12.3535 236.9495L2.454 227.0505C0.111 224.7075 0.111 220.9085 2.454 218.565L92.8035 128L2.454 37.435C0.111 35.092 0.111 31.293 2.454 28.9495L12.3535 19.05C14.6965 16.707 18.4955 16.707 20.839 19.05L125.546 123.757C127.889 126.1 127.889 129.899 125.546 132.2425L20.839 236.9495C18.4955 239.293 14.6965 239.293 12.3535 236.9495z" />
  </font>
</defs>
</svg>
