<svg xmlns="http://www.w3.org/2000/svg" width="256" height="92.763" viewBox="0 0 256 92.763"><defs><style>.a{fill:#1893d2;}.b{fill:#0d0b18;}</style></defs><path class="a" d="M110.732,8.748V7.28c0-3.6,2.061-7.28,6.912-7.28a7.063,7.063,0,0,1,2.432.4l-.629,2.1a5.232,5.232,0,0,0-2.064-.4c-2.829,0-4.332,1.909-4.332,5.252v1.4h4.958v1.985h-4.958v14.52h-2.319V10.733m17.061,15c5.326,0,7.937-3.823,7.937-8.675s-2.611-8.783-7.937-8.783-7.939,3.822-7.939,8.677,2.606,8.781,7.939,8.781m0-15.55c3.9,0,5.435,2.979,5.435,6.84,0,3.929-1.538,6.8-5.435,6.8s-5.439-2.974-5.439-6.834c0-3.935,1.541-6.8,5.439-6.8m27.314,15.076V14.108c0-3.818-2.867-5.838-6.393-5.838a7.3,7.3,0,0,0-5.848,2.611V8.749H140.7V25.254h2.32V13.119a5.525,5.525,0,0,1,5.11-2.791c2.532,0,4.631,1.473,4.631,4.259V25.254ZM168.6,8.27a8.35,8.35,0,0,0-8.715,8.71c0,6.137,4.419,8.748,8.939,8.748a18.527,18.527,0,0,0,5.913-.915V.475h-2.317V8.784a15,15,0,0,0-3.82-.514m.441,15.405c-4.045,0-6.656-2.467-6.656-6.733,0-3.967,2.319-6.614,6.322-6.614a11.3,11.3,0,0,1,3.713.591V23.155a10.729,10.729,0,0,1-3.379.52m24.49,1.579V14.045c0-3.755-2.761-5.775-6.7-5.775a7.862,7.862,0,0,0-6.207,2.753l1.546,1.475a5.582,5.582,0,0,1,4.555-2.134c2.829,0,4.479,1.432,4.479,3.931V16.5a13.531,13.531,0,0,0-4.882-.882c-3.422,0-6.434,1.4-6.434,5.116,0,3.084,2.464,4.993,5.77,4.993a6.954,6.954,0,0,0,5.7-2.644v2.17ZM191.21,20.99a5.819,5.819,0,0,1-5.037,2.753c-2.456,0-3.964-1.212-3.964-3.052,0-2.573,2.317-3.27,4.522-3.27a11.353,11.353,0,0,1,4.479.915Zm6.149-12.242v1.985h2.978v8.086c0,3.414,1.1,6.908,5.77,6.908a18.669,18.669,0,0,0,2.205-.142l-.329-2.1a7.018,7.018,0,0,1-1.362.145c-3.231,0-3.972-2.388-3.972-4.887V10.733h4.963V8.748Zm15.553,16.5h2.312V8.748h-2.312Zm15.219.48c5.333,0,7.939-3.823,7.939-8.675s-2.606-8.783-7.939-8.783-7.94,3.822-7.94,8.677,2.611,8.781,7.94,8.781m0-15.55c3.9,0,5.44,2.979,5.44,6.84,0,3.929-1.541,6.8-5.44,6.8S222.7,20.84,222.7,16.98c0-3.935,1.539-6.8,5.435-6.8m27.316,15.076V14.108c0-3.818-2.867-5.838-6.393-5.838a7.278,7.278,0,0,0-5.843,2.611V8.749h-2.175V25.254h2.322V13.119a5.523,5.523,0,0,1,5.1-2.791c2.532,0,4.634,1.473,4.634,4.259V25.254Z"/><path class="b" d="M120.019,90.242c-7.169,0-10.275-5.462-10.275-11.22,0-6.26,3.539-11.163,10.223-11.163a10.461,10.461,0,0,1,8.2,3.526l-2.029,2.031a7.724,7.724,0,0,0-6.077-2.919c-5.187,0-7.215,3.861-7.215,8.435,0,4.381,2.167,8.672,7.351,8.672a8.228,8.228,0,0,0,6.36-2.824l1.846,1.931a10.822,10.822,0,0,1-8.388,3.531m29.889-.611V75.252c0-4.808-3.532-7.4-8.58-7.4a10.079,10.079,0,0,0-7.963,3.531l1.976,1.887a7.167,7.167,0,0,1,5.846-2.734c3.632,0,5.747,1.835,5.747,5.043V78.41a17.573,17.573,0,0,0-6.267-1.127c-4.384,0-8.244,1.786-8.244,6.546,0,3.961,3.158,6.414,7.4,6.414a8.881,8.881,0,0,0,7.305-3.395v2.783Zm-2.974-5.462a7.47,7.47,0,0,1-6.461,3.531c-3.147,0-5.088-1.563-5.088-3.92,0-3.289,2.973-4.185,5.8-4.185a14.45,14.45,0,0,1,5.747,1.176Zm20.091-13.486a6.566,6.566,0,0,1,2.548.518l.754-2.873a9.763,9.763,0,0,0-2.875-.468c-3.253,0-5.282,1.691-6.932,3.861V68.462h-2.684V89.63H160.8V74.549c1.511-2.265,3.586-3.866,6.222-3.866m23.061,18.948V75.252c0-4.808-3.534-7.4-8.585-7.4a10.078,10.078,0,0,0-7.964,3.531l1.98,1.887a7.155,7.155,0,0,1,5.845-2.734c3.632,0,5.748,1.835,5.748,5.043V78.41a17.574,17.574,0,0,0-6.265-1.127c-4.386,0-8.252,1.786-8.252,6.546,0,3.961,3.163,6.414,7.4,6.414a8.878,8.878,0,0,0,7.305-3.395v2.783Zm-2.976-5.462a7.481,7.481,0,0,1-6.461,3.531c-3.156,0-5.086-1.563-5.086-3.92,0-3.289,2.976-4.185,5.8-4.185a14.455,14.455,0,0,1,5.748,1.176ZM204.084,70.4a6.452,6.452,0,0,1,5.513,2.878l1.985-1.93a8.542,8.542,0,0,0-7.348-3.491c-4.245,0-7.169,2.165-7.169,5.941,0,7.918,11.784,4.67,11.784,10.651,0,1.786-1.552,3.254-4.765,3.254a7.18,7.18,0,0,1-5.982-3.02l-2.121,1.931a9.649,9.649,0,0,0,7.97,3.632c4.285,0,7.721-2.26,7.721-6.221,0-8.016-11.735-5.133-11.735-10.556,0-1.751,1.13-3.069,4.147-3.069m19.713,0a6.475,6.475,0,0,1,5.519,2.878l1.979-1.93a8.549,8.549,0,0,0-7.349-3.491c-4.247,0-7.171,2.165-7.171,5.941,0,7.918,11.784,4.67,11.784,10.651,0,1.786-1.555,3.254-4.762,3.254a7.177,7.177,0,0,1-5.982-3.02L215.7,86.61a9.64,9.64,0,0,0,7.966,3.632c4.28,0,7.727-2.26,7.727-6.221,0-8.016-11.734-5.133-11.734-10.556,0-1.751,1.129-3.069,4.141-3.069m22.02,19.845c6.84,0,10.183-4.9,10.183-11.125s-3.343-11.255-10.183-11.255-10.182,4.9-10.182,11.114,3.348,11.266,10.182,11.266m0-19.941c4.994,0,6.976,3.823,6.976,8.776,0,5.034-1.982,8.715-6.976,8.715s-6.975-3.817-6.975-8.77c0-5.045,1.977-8.721,6.975-8.721M116.664,42.1a6.053,6.053,0,0,0-6.317,6.308c0,4.449,3.2,6.339,6.472,6.339a13.265,13.265,0,0,0,4.294-.665V36.453H119.43v6.014a11.212,11.212,0,0,0-2.766-.367m.319,11.157a4.478,4.478,0,0,1-4.822-4.876c0-2.872,1.682-4.792,4.582-4.792a8.285,8.285,0,0,1,2.687.425v8.87a7.777,7.777,0,0,1-2.447.373m17.747,1.149V46.282c0-2.72-2-4.182-4.849-4.182a5.7,5.7,0,0,0-4.5,2l1.122,1.062a4.027,4.027,0,0,1,3.3-1.547c2.047,0,3.248,1.038,3.248,2.851v1.6a9.881,9.881,0,0,0-3.542-.645c-2.481,0-4.664,1.015-4.664,3.708,0,2.233,1.789,3.621,4.179,3.621a5.033,5.033,0,0,0,4.133-1.919v1.573Zm-1.68-3.09a4.226,4.226,0,0,1-3.651,2c-1.784,0-2.875-.883-2.875-2.211,0-1.868,1.677-2.372,3.278-2.372a8.252,8.252,0,0,1,3.248.665Zm16.783,3.09V46.338c0-2.774-2.08-4.239-4.637-4.239a5.3,5.3,0,0,0-4.234,1.89V42.448h-1.574V54.406h1.686V45.617a3.994,3.994,0,0,1,3.694-2.028,3.053,3.053,0,0,1,3.363,3.09v7.727ZM154.5,54.4h1.677V42.447H154.5Zm11.185.353a6.121,6.121,0,0,0,4.743-2l-1.043-1.089a4.579,4.579,0,0,1-3.567,1.6c-2.584,0-4.206-1.9-4.285-4.659h9.347c0-4.212-1.95-6.5-5.541-6.5-3.033,0-5.568,2.047-5.568,6.371,0,3.248,1.941,6.286,5.914,6.286m-.346-11.269a3.5,3.5,0,0,1,3.706,3.728h-7.46c.269-2.127,1.306-3.728,3.754-3.728m9.143,10.922h1.677V36.454h-1.677Zm45.821,0V46.338c0-2.774-2.083-4.239-4.637-4.239a5.287,5.287,0,0,0-4.233,1.89V42.448h-1.574V54.406h1.68V45.617a4,4,0,0,1,3.7-2.028,3.05,3.05,0,0,1,3.357,3.09v7.727Zm4.663-.007h1.677V42.447h-1.677Zm16.916.007V46.338c0-2.774-2.08-4.239-4.634-4.239a5.3,5.3,0,0,0-4.236,1.89V42.448h-1.568V54.406h1.674V45.617a4.013,4.013,0,0,1,3.7-2.028,3.047,3.047,0,0,1,3.354,3.09v7.727Zm13.483,0V46.282c0-2.72-2-4.182-4.847-4.182a5.694,5.694,0,0,0-4.5,2l1.122,1.062a4.026,4.026,0,0,1,3.3-1.547c2.053,0,3.251,1.038,3.251,2.851v1.6a9.854,9.854,0,0,0-3.54-.645c-2.48,0-4.664,1.015-4.664,3.708,0,2.233,1.784,3.621,4.182,3.621a5.029,5.029,0,0,0,4.131-1.919v1.573Zm-1.68-3.09a4.226,4.226,0,0,1-3.651,2c-1.784,0-2.873-.883-2.873-2.211,0-1.868,1.677-2.372,3.273-2.372a8.234,8.234,0,0,1,3.251.665Zm-62.019-7.051c-.966-1.073-2.009-2.217-2.009-3.616a2.655,2.655,0,0,1,2.924-2.595,2.338,2.338,0,0,1,2.521,2.568c0,2.091-1.881,2.905-3.436,3.643m4.607,7.354a5.923,5.923,0,0,1-4.378,2.063c-2.14,0-4.125-1.249-4.125-3.67,0-1.955,1.658-3.433,3.335-4.095Zm-3.692-6.44c2.137-1.07,4.277-2.063,4.277-4.838,0-2.494-2.058-3.664-4.174-3.664-2.341,0-4.783,1.328-4.783,3.871,0,1.781,1.22,3.131,2.314,4.381-2.366.915-4.2,2.437-4.2,5.165,0,3.433,2.829,4.961,5.835,4.961a6.928,6.928,0,0,0,5.391-2.339l1.884,1.982h2.238l-3.028-3.281A10.877,10.877,0,0,0,200.319,45h-1.525a9.256,9.256,0,0,1-1.527,5.4Z"/><path class="a" d="M87.332,53.7l-.675.152L87.09,55a1.86,1.86,0,0,0,.09.212,1.775,1.775,0,0,0,.387,1.059l-.616.027.313,1.307a.975.975,0,0,1,.022.183.821.821,0,0,1-.022.19l-.482.313a1.126,1.126,0,0,0-.846,1.1v.062a1.851,1.851,0,0,0-.27.972,2.608,2.608,0,0,0,.112.7v.022c-.008.049-.014.089-.019.133a1.355,1.355,0,0,0-.2.716,1.043,1.043,0,0,0,.017.188l-.218.536a1.416,1.416,0,0,0-.106.523,1.185,1.185,0,0,0,.128.542A2.477,2.477,0,0,1,84.863,65l-.436.33v.144a1.541,1.541,0,0,0-.517.5l-.21.322.03.381a1.528,1.528,0,0,0,.213.659,10.482,10.482,0,0,1-.8,1.59,1.262,1.262,0,0,0-.79.283,1.317,1.317,0,0,0-.455.92l-.2.286.179.5a.2.2,0,0,0,.008.021,9.375,9.375,0,0,1-2.768,3.238L79,74.294a7.77,7.77,0,0,0-.58.809c-.245.389-.441.691-.686.792l-.275.112-.185.234a14.365,14.365,0,0,1-2.794,2.878l-.62.452.068.242a1.017,1.017,0,0,1-.305.188l-.281.079-.193.2c-.259.267-.5.545-.738.82a5.62,5.62,0,0,1-1.574,1.429l-.283.144-.169.278a3.711,3.711,0,0,1-1.421,1.329l-.2.18a6.005,6.005,0,0,0-.449.574c-.3.411-.4.528-.575.564l-.455.1-.253.392a2.385,2.385,0,0,1-.378.367,4.5,4.5,0,0,0-.632.6,4.8,4.8,0,0,0-1.369.8,2.37,2.37,0,0,1-1.117.567l-.185.062a3.78,3.78,0,0,0-.937.692,1.534,1.534,0,0,1-.375.3,7.1,7.1,0,0,0-1,.4,3.118,3.118,0,0,1-.722.275c-.035,0-.082-.006-.207-.016a3.054,3.054,0,0,0-.727.027,2.5,2.5,0,0,0-.9.435.227.227,0,0,0-.068.077.679.679,0,0,1-.109,0h-.117a2.9,2.9,0,0,0-.569.046,4.028,4.028,0,0,0-1,.4,2.739,2.739,0,0,1-.422.191,5.171,5.171,0,0,1-.659.15,8.018,8.018,0,0,0-1.073.269l-.327.044a6.567,6.567,0,0,0-1.552.413,3.13,3.13,0,0,1-.648.107,4.1,4.1,0,0,0-1.7.463,4.077,4.077,0,0,1-3.223-1.106l-.256-.256-.365-.052a1.213,1.213,0,0,1-.256-.049,7.46,7.46,0,0,0,.068-1.067c0-.64-.06-1.32-.117-1.968-.057-.613-.106-1.261-.106-1.841a4.007,4.007,0,0,1,.381-1.963l.166-.308-.038-.34a1.08,1.08,0,0,1,.054-.2,2.442,2.442,0,0,0,.128-.623,1.908,1.908,0,0,1,.24-.207h.071l.288-.017.39.044.307-.213c.076-.049.177-.089.294-.149a2.921,2.921,0,0,0,1.043-.727l.531.084.223-1.026c.011-.038.095-.123.316-.3a3.437,3.437,0,0,0,.64-.668c.25-.111.471-.228.672-.34.09-.046.175-.09.259-.136a3.689,3.689,0,0,0,2.97-.207,2.549,2.549,0,0,0,1.408-.338c.049-.024.112-.062.161-.084l.781.084.272-.833a20.1,20.1,0,0,0,.643-2.861l.027-.15c.065-.37.131-.754.207-1.116.112-.542.2-1.16.3-1.808l.022-.174c.079-.545.16-1.108.25-1.634.025-.133.057-.272.112-.495a4.887,4.887,0,0,0,.223-1.324,2.684,2.684,0,0,0-.136-.865,45.7,45.7,0,0,0,.572-6.366q.036-.96.084-1.9c.035-.591.052-1.192.052-1.789a41.786,41.786,0,0,0-.553-6.444,3.947,3.947,0,0,0-.749-1.993l.082-.3-.6-.452a2.964,2.964,0,0,1-.566-.653,3.992,3.992,0,0,0-1.672-1.473l-.449-.387-.741-.011-.585-.005c-.58-.011-1.076-.665-1.176-1.561l-.09-.844-.844-.117a1.44,1.44,0,0,1-.708-.413,3.429,3.429,0,0,0-1.8-.9,4.775,4.775,0,0,0-2.206-.689v.019a2.9,2.9,0,0,1-.522-1.222l-.068-.218a5.769,5.769,0,0,0,.291-1.318l.008-.049a7.139,7.139,0,0,0,1.119-2.505c1.854-2.979,2.921-7.476,2.921-12.358,0-.942-.043-1.92-.138-2.973l-.237-.733a9.816,9.816,0,0,0-1.46-3l-.171-.212-.234-.107a1.891,1.891,0,0,1-.365-.256,3.192,3.192,0,0,0-1.489-.721,2.181,2.181,0,0,0-.736-.329l-.136-.3-.591-.09a6.291,6.291,0,0,1-1.987-.553l-1.669-.792-.256-.308-.746.319c-.324.141-.681.275-1.059.419l-.264.095a17.128,17.128,0,0,0-3.635,1.691l-.242.161-.175.356c-.059.123-.149.3-.166.324l-.345.18-.166.357a6.414,6.414,0,0,0-.425,1.606,3.558,3.558,0,0,1-.351,1.2l-.079.332a30.474,30.474,0,0,0-.2,3.264,18.164,18.164,0,0,0,.365,3.76.31.31,0,0,0-.008.063l-.254.191.191.7c.128.468.239.975.362,1.5a18.754,18.754,0,0,0,1.261,4.111l.059.112c.493.76,1.021,1.5,1.533,2.222l.354.5c.308.431.627.872.921,1.318a9.718,9.718,0,0,1,.359,2.706c.022.518.049,1.087.117,1.718a3.551,3.551,0,0,1-.675.134,1.3,1.3,0,0,0-.665.346,3.537,3.537,0,0,0-.838.185c-.1.027-.256.081-.289.081l-.531-.2-.457.316c-.988.648-2.018,1.28-3.047,1.909-.58.356-1.181.721-1.767,1.094a2.523,2.523,0,0,0-1.486.754l-.477.518a.551.551,0,0,1-.212.163l-.335.114-.2.281a5.5,5.5,0,0,0-.95,3.33,8.326,8.326,0,0,0,.046.855c.011.111.022.223.033.329l.03.234a9.271,9.271,0,0,0,.465,1.879c-.038.408-.06.838-.06,1.269,0,3.34,1.177,6.681,2.165,9.428-.006.066-.006.128-.006.188a2.529,2.529,0,0,0,.48,1.413c.04.079.089.155.108.2.1.283.172.574.248.879l.038.142a6.96,6.96,0,0,0,.744,2.036,5.114,5.114,0,0,0,.669,1.868.9.9,0,0,0,.068.351l-.078.381.294.395a9.1,9.1,0,0,1,.593,1.005,7.965,7.965,0,0,0,.986,1.557,7.3,7.3,0,0,0,1.1,2.617l.163.272.3.155a3.152,3.152,0,0,1,.681.588,6.566,6.566,0,0,0,.819.779,4.693,4.693,0,0,0,.953.493,3.518,3.518,0,0,1,.352.16l.106.074a3.093,3.093,0,0,0,1.446.675l.168.016c.422.038.428.049.512.145l.256.324.417.073a1.824,1.824,0,0,0,.544-.005c.085.049.166.1.251.144l.144.084c.084.049.169.1.251.15.016.743.062,1.623.138,2.568.014.2.033.394.052.675.063.762.123,1.544.24,2.224a3.451,3.451,0,0,0,.3.872.482.482,0,0,1,.028.059,2,2,0,0,0-.319.482,3.981,3.981,0,0,0-.264,1.25c0,.055-.005.1-.008.144l-1.242.262.73,1.2a8.8,8.8,0,0,1-3.384-1,14.17,14.17,0,0,0-2.592-.956c-.733-.534-1.462-1.026-2.374-1.639a4.091,4.091,0,0,0-.58-.318c-.128-.066-.248-.123-.349-.183a7.958,7.958,0,0,1-.874-.716,4.055,4.055,0,0,0-2.932-1.389c-.055-.038-.1-.078-.169-.128l-.144-.084a20.292,20.292,0,0,1-4.286-3.079l-.329-.289-.144-.095A36.2,36.2,0,0,1,20.1,79.729c-.985-.793-2.006-1.607-3.115-2.345A4.351,4.351,0,0,0,15.7,76.23a.239.239,0,0,0-.052-.038,8.894,8.894,0,0,0-1.516-1.612A6.476,6.476,0,0,1,12.8,73.1l-.245-.239a14.247,14.247,0,0,1-2.331-2.383c-.4-.479-.806-.963-1.247-1.421a4.7,4.7,0,0,0-1.506-1.813l-.3-.52a31.542,31.542,0,0,0-2.837-4.245,1.69,1.69,0,0,0-.294-.61,6.892,6.892,0,0,1-.9-1.846,10.292,10.292,0,0,0-.955-2.014,2.137,2.137,0,0,0-.381-1.226A7.358,7.358,0,0,0,1.2,54.851,6.166,6.166,0,0,1,.76,53.5a2.936,2.936,0,0,0-.531-1.233,2.336,2.336,0,0,0-.169-.245c0-.047.011-.1.024-.213a3.792,3.792,0,0,0,.058-.721,2.958,2.958,0,0,0-.12-.656L0,50.408a2.678,2.678,0,0,1,.1-.474,4,4,0,0,0,.182-1.1,6.032,6.032,0,0,0-.084-.9A4.82,4.82,0,0,1,.142,47.3a37.047,37.047,0,0,1,1.375-9.943l.032-.207A9.253,9.253,0,0,1,2.2,34.655a10.333,10.333,0,0,0,.825-3.679,6.622,6.622,0,0,0,.452-1.287,2.691,2.691,0,0,1,.34-.921l.362-.247.09-.447a1.986,1.986,0,0,1,.34-.986L5,26.748l-.005-.515a3.664,3.664,0,0,1,.767-2.243,9.881,9.881,0,0,0,.561-.98l.074-.234,0-.139a3.369,3.369,0,0,1,1.1-2A7.425,7.425,0,0,0,8.517,19.25a3.148,3.148,0,0,0,.285-.91,1.365,1.365,0,0,1,.066-.285,2.768,2.768,0,0,1,.514-.518c.153-.141.319-.3.515-.52l.166-.318A7.14,7.14,0,0,1,13.455,13l.493-.3.019-.4a2.768,2.768,0,0,0,.488-.569c.032-.049.06-.1.06-.1a3.09,3.09,0,0,1,.354-.223,3.719,3.719,0,0,0,.841-.616,1.755,1.755,0,0,0,.362-.579,4.057,4.057,0,0,1,.613-.431,4.787,4.787,0,0,0,.884-.645,6.783,6.783,0,0,1,2.38-1.062c.237-.054.531-.09.942-.144.376-.052.787-.112,1.3-.218l.218-.09a6.536,6.536,0,0,1,2.469-.868l.2-.052a2.74,2.74,0,0,0,.643-.357c.073,0,.155-.011.261-.011l.686.011a2.778,2.778,0,0,0,.866-.166,1.1,1.1,0,0,1,.139-.046,19.553,19.553,0,0,1,3,.057c.7.055,1.5.112,2.281.112a10.931,10.931,0,0,0,2.32-.218A13.778,13.778,0,0,0,37.23,6.2l1.135-.011a4.229,4.229,0,0,1,2.753.58,1.044,1.044,0,0,0,.052.183l.2,1.451L42.7,7.8a1.323,1.323,0,0,0,.539-.431l.063.011.313-.144a16.762,16.762,0,0,0,1.9-1.062A9.3,9.3,0,0,1,47.579,5.1l.329-.112.2-.266a2.005,2.005,0,0,1,.349-.107l.117-.024c.147-.044.3-.082.452-.139.52-.193,1.032-.4,1.571-.629a16.076,16.076,0,0,1,3.888-1.211,14.351,14.351,0,0,1,3.648.149l.144.011a1.7,1.7,0,0,0,.243-.022,2.8,2.8,0,0,0,.569.112.538.538,0,0,1,.2.052l.229.095.139.022a10.808,10.808,0,0,0,1.247.084h.161a13.941,13.941,0,0,1,1.729.123,2.433,2.433,0,0,1,.362.1,3.5,3.5,0,0,0,.993.2,5.273,5.273,0,0,1,1,.147,7.146,7.146,0,0,0,1.269.183c.03.016.071.043.117.073a2.337,2.337,0,0,0,.765.341,3.79,3.79,0,0,0,.885.089l.349,0c.166,0,.288.011.294,0l.117.093a2.175,2.175,0,0,0,1.473.531,16.48,16.48,0,0,0,1.579.781c.313.139.632.289.939.436l.093.422-1.01,1.748L74.454,7.3l.076.4,1.054-.155a.149.149,0,0,1,.049.032l-.131.523,1.261.131a2.357,2.357,0,0,1,.6.416,5.083,5.083,0,0,0,.948.67V10.1l.994.106a1.712,1.712,0,0,1,.223.207,3.088,3.088,0,0,0,.76.613,1.691,1.691,0,0,0,.277.313l.06.286.068.117a1.171,1.171,0,0,0,.882.634l.079.011c.177.207.346.392.518.558l.032.15a1.419,1.419,0,0,0,.558.822,1.5,1.5,0,0,0,.57.724,1.558,1.558,0,0,0,.122.515l.057.139-.19.49.721.275a4.166,4.166,0,0,0,.232.468l-.439,1.217.724.027-.552.629,1.759.425a.385.385,0,0,1,.3.223,1.415,1.415,0,0,0-.166.6v.035h-.027l.182,1.31a1.3,1.3,0,0,0,.213.585,1.828,1.828,0,0,0-.011.253l.038.232a1.177,1.177,0,0,0,.536.71l.063,1.065.582-.172a2.567,2.567,0,0,0,.213.224c.062.223.139.468.22.724a5.246,5.246,0,0,1,.33,1.516l-.1.548.373.392a2.418,2.418,0,0,1,.1.539,3.86,3.86,0,0,0,.277,1.143,1.262,1.262,0,0,0,.139,1.021c0,.085.008.174.014.264a1.811,1.811,0,0,1-.025.507l-.065.3-3-.022,2.522,1.555-1.68,1.7,2.238-.613-.011.084.212.319a1.812,1.812,0,0,0,.229.3,1.48,1.48,0,0,0,.177.376L89.6,36.484c-.013.2-.016.406-.013.575l-.008.416-.229.158v.9a1.2,1.2,0,0,0,.18.585,4.327,4.327,0,0,1-.164.831l-.043.133.038.275a1.3,1.3,0,0,0,.141.384.073.073,0,0,0,0,.022l0,.234-.981.381.069.084-.823.1,1.157,1.34v.046c0,.117,0,.24.006.346l.03.3.193.264.03.038a3.644,3.644,0,0,0,0,.825,1.729,1.729,0,0,0-.111.626l-1.618.77,1.237.613.217.73a2.312,2.312,0,0,1,.117.732A5.688,5.688,0,0,1,88.6,50c-.06.183-.126.373-.188.559l-.537-.962v2.818a1.32,1.32,0,0,0-.157.559l-.333-.006ZM54.05,48.067a1.04,1.04,0,0,1-.234.038l.051.019-.141.8s.041.112.063.177a2.525,2.525,0,0,1,.16.95,1.955,1.955,0,0,1-.2.784c-.019.041,0,.1.057.292a4.366,4.366,0,0,1,.2.819,4.884,4.884,0,0,1,.063.825,13.857,13.857,0,0,1-.354,2.679l-.022.117c-.095.5-.188.983-.239,1.441l-.126,1.048a20.5,20.5,0,0,0-.22,3.047,8.228,8.228,0,0,1-.213,2.148c-.059.324-.111.585-.144.857l-.052.458c-.106.828-.223,1.77-.3,2.668-.079.977-.153,2.165-.207,3.335-.022.436-.063.861-.114,1.274-.047.458-.093.891-.093,1.283a5.27,5.27,0,0,0,.207,1.293,10.235,10.235,0,0,1,.245,1.163.27.27,0,0,0,.057.038l.06-.057-.046.068a4.379,4.379,0,0,0,1.7.373c.044-.038.085-.076.126-.112s.1-.095.152-.144c.245-1.228.452-3.014.629-4.468l.022-.229c.141-1.2.28-2.317.43-3.248.185-1.116.259-2.227.335-3.313a28.654,28.654,0,0,1,.3-3.009l.051-.278a4.968,4.968,0,0,0,.077-.58c.032-.6.089-1.184.144-1.742.062-.645.128-1.3.136-1.868a10.09,10.09,0,0,0-.063-1.111c-.043-.441-.076-.876-.076-1.323,0-.357.008-.719.016-1.075l.006-.213c0-.272.008-.525.008-.787a5.013,5.013,0,0,0-.368-2.292,3.425,3.425,0,0,0-.653-.564,3.76,3.76,0,0,1-1.432-1.579M44.971,70.274c0-.256.327-.446.134-.964s.128-1.669-.134-1.8-.062-.765-.062-.765-.126-.961-.708-.9-.575.068-1.087.134a6.611,6.611,0,0,1-1.026.128c-.447,0-.259-.194-.7-.128a3.286,3.286,0,0,1-.708.062c-.321,0-.253.708-.512,1.027-.316.4-.068.2,0,.836s.191.514.384,1.026-.125-.512.449.9.256,1.021.9,1.669,1.026.645,1.026.645a1.687,1.687,0,0,0,.387-.071c.256-.057,0,.256.256-.057a2.337,2.337,0,0,1,.574-.517l.58-.648a1.173,1.173,0,0,0,.253-.575m-2.94-41.967c.168-.055.329-.223.5-.665s.275-.612.392-.887a1.785,1.785,0,0,0,.223-.779c0-.335.164-.5.218-.776a6.045,6.045,0,0,0,.169-1c0-.27-.223-1.664-1.171-1.552a3.07,3.07,0,0,0-1.051.335c-.329.163-.5.052-.664.387a2.138,2.138,0,0,0-.335,1,10.078,10.078,0,0,0,.5,2.44c.226.446.553.781.553.942s.506.61.67.558m9.058,19.761A15.1,15.1,0,0,0,50.8,51.46l0,1.166a16.46,16.46,0,0,1-.142,2.472c-.046.313-.117.637-.18.945a10.337,10.337,0,0,0-.283,2.118,3.643,3.643,0,0,0,.036.563,1.883,1.883,0,0,1-.06.218,3.339,3.339,0,0,0-.155.725,2.564,2.564,0,0,0,.049.664,1.162,1.162,0,0,0-.15.324,12.9,12.9,0,0,0-.324,3.387v.144c-.011.558-.017,1.089-.066,1.59a4.281,4.281,0,0,1-.1.5,4.41,4.41,0,0,0-.182,1.215,10.538,10.538,0,0,1-.074,1.078,9.9,9.9,0,0,0-.065,1.6,1.792,1.792,0,0,1-.191.749,5.949,5.949,0,0,0-.286.953,4.01,4.01,0,0,0-.043.7,1.339,1.339,0,0,1-.019.307c-.058.251-.139.5-.243.814a6.373,6.373,0,0,0-.34,1.334,7.1,7.1,0,0,0,0,1.021,3.109,3.109,0,0,1,.006.659,6.1,6.1,0,0,1-.234,1,8.953,8.953,0,0,0-.284,1.2,12.976,12.976,0,0,1-1.165.915,1.723,1.723,0,0,0-.43.068c-.218-.036-.438-.057-.675-.079a2.634,2.634,0,0,1-.632-.09l-.321-.161c-.308-.144-.7-.329-1.1-.558l-.289-.084a16.392,16.392,0,0,1-3.931-1.394c-1.141-1.07-1.471-3.376-1.737-5.228l-.2-1.328-.621-.224a5.735,5.735,0,0,0-1.391-.3c-.174-.561-.33-1.165-.5-1.816a17.457,17.457,0,0,0-1.31-3.869,13.036,13.036,0,0,0-1.383-4.7l-.2-.431-.043-.2a32.459,32.459,0,0,0-1.149-4.34,1.6,1.6,0,0,0,.013-.6l-.054-.185a3.092,3.092,0,0,1-.185-1.192c0-.392.035-.809.065-1.212l.017-.117c.027-.4.057-.814.057-1.217v-.139l0-.005c.51-.637,1.032-1.294,1.531-1.969.024.006.046.011.076.016a2.814,2.814,0,0,0,1.944-.291l.365-.234.109-.43a1.515,1.515,0,0,0,.035-.411c.809-.817,2.546-1.021,3.961-1.19l.265-.027.25-.085a3.226,3.226,0,0,0,.46-.228h.087a4.645,4.645,0,0,0,2.44-.646l.686-.471-.281-.787a7.1,7.1,0,0,1-.283-2.319l.006-.915a8.965,8.965,0,0,0-.343-2.785,1.581,1.581,0,0,0,.046-.512l-.025-.308-.193-.272a2.008,2.008,0,0,1-.15-.256,2.462,2.462,0,0,0-1.059-1.116,16.814,16.814,0,0,1-1.421-3.654,21.389,21.389,0,0,0-1.285-3.5,4.276,4.276,0,0,0-.49-2.066,20.532,20.532,0,0,1-.281-3.17A11.043,11.043,0,0,1,37,20.384l.112-.5-.041-.052a1.309,1.309,0,0,1,.068-.128c.044-.076.082-.155.126-.223l.239-.357-.073-.424a2.13,2.13,0,0,1-.025-.289.7.7,0,0,1,.074-.373,2.831,2.831,0,0,1,.675-.18l.408-.084a9.082,9.082,0,0,0,1.1-.341,2.865,2.865,0,0,1,.662-.187.557.557,0,0,1,.234.076l.283.052c.2.016.414.016.634.016h.648a5.363,5.363,0,0,1,.8.043,6.231,6.231,0,0,1,1.92.8,11.172,11.172,0,0,0,1.557.733,8.049,8.049,0,0,0,.643.729,4.016,4.016,0,0,1,.553.654c-.006.122-.011.245-.011.367a12.315,12.315,0,0,0,.2,1.9,9.888,9.888,0,0,1,.169,1.563,4.346,4.346,0,0,1-.038.585,4.51,4.51,0,0,1-.335.953,8.344,8.344,0,0,0-.34.956,4.563,4.563,0,0,0-.131,1.236,2.542,2.542,0,0,1-.071.689,2.891,2.891,0,0,1-.1.283,10.592,10.592,0,0,0-.42,1.4l-.394.136.021.8c0,.07-.008.092-.158.324a2.878,2.878,0,0,0-.356.713l-.27.076-.163.6a7.461,7.461,0,0,1-1.71,3.681l-.408.371.051.566a1.377,1.377,0,0,0,.275.7,8.852,8.852,0,0,0-.1,1.383c0,.6.047,1.19.1,1.857.035.479.076.926.076,1.383,0,.136-.005.275-.011.392l-.1,1.574,1.508-.468a4.317,4.317,0,0,1,3.074,0l.627.422.354-.256c.051.022.111.041.174.063a11.154,11.154,0,0,0,.868.974,3.071,3.071,0,0,1,1.029,1.547l.139.675Z"/></svg>