<svg xmlns="http://www.w3.org/2000/svg" width="255.791" height="118.391" viewBox="0 0 255.791 118.391"><defs><style>.a{fill:#c31130;}.b{fill:#fff;}.c{fill:#1d1d1b;}</style></defs><path class="a" d="M97.633,55.961V5.22A5.227,5.227,0,0,0,92.412,0H5.222A5.216,5.216,0,0,0,.012,5.21V55.956C0,56.411-.03,57.823.119,59.971A63.723,63.723,0,0,0,5.533,81.4c.3.653.6,1.3.912,1.934a59.021,59.021,0,0,0,2.994,5.329,57.286,57.286,0,0,0,6.947,8.921c.511.537,1.02,1.058,1.527,1.57,1.629,1.641,3.293,3.208,4.946,4.658,1.464,1.287,2.974,2.53,4.488,3.7,1.132.87,2.27,1.7,3.385,2.469,8.466,5.832,14.929,7.7,16.708,8.137l1.4.281,1.363-.282a43.479,43.479,0,0,0,9.464-3.759,71.381,71.381,0,0,0,9.831-6.239,95.276,95.276,0,0,0,11.76-10.528A57.659,57.659,0,0,0,91.2,83.33a62.746,62.746,0,0,0,4.794-13.389,63.629,63.629,0,0,0,1.532-9.972C97.678,57.77,97.646,56.363,97.633,55.961Z"/><path class="b" d="M95.009,56.026V5.4a2.746,2.746,0,0,0-2.743-2.743H5.368A2.735,2.735,0,0,0,2.636,5.391v50.6a36.354,36.354,0,0,0,.1,3.805A61.023,61.023,0,0,0,7.92,80.307c.282.624.572,1.243.873,1.852a56.288,56.288,0,0,0,2.857,5.088,54.6,54.6,0,0,0,6.628,8.51c.5.522.992,1.029,1.484,1.527,1.589,1.6,3.207,3.122,4.808,4.527,1.417,1.247,2.881,2.451,4.348,3.581,1.093.839,2.193,1.642,3.271,2.385,8.1,5.578,14.184,7.342,15.868,7.752l.774.154.785-.162a40.854,40.854,0,0,0,8.879-3.538,68.728,68.728,0,0,0,9.456-6.005A92.693,92.693,0,0,0,79.367,95.757a55.032,55.032,0,0,0,9.485-13.6,60.1,60.1,0,0,0,4.589-12.818A60.584,60.584,0,0,0,94.908,59.8,36.947,36.947,0,0,0,95.009,56.026ZM20.428,34.989h0c.29,2.934-.6,6.211-1.549,9.679-.917,3.362-1.864,6.837-1.7,10.107a23.28,23.28,0,0,0,1.463,6.139,26.606,26.606,0,0,1,1.492,5.969c.259,2.952-.616,5.919-1.463,8.788a27.181,27.181,0,0,0-1.493,7.688,32.613,32.613,0,0,0,1.648,8.529,51.982,51.982,0,0,1-5.714-8.033c-.126-.218-.247-.437-.367-.656l-.092-.165a26.257,26.257,0,0,1,1.407-5.6A23.544,23.544,0,0,0,15.541,70.9a21.923,21.923,0,0,0-1.49-8.307A24.791,24.791,0,0,1,12.586,56.2c-.252-3.481.712-6.859,1.645-10.125.876-3.067,1.7-5.964,1.6-8.93a20.933,20.933,0,0,0-1.618-6.4,23.339,23.339,0,0,1-1.629-6.077c-.335-4,.706-7.186,1.712-10.269.931-2.848,1.811-5.544,1.638-8.743h4.789a20.307,20.307,0,0,1-1.642,7.666A24.706,24.706,0,0,0,17.175,22.5a18.542,18.542,0,0,0,1.53,6.135A25,25,0,0,1,20.428,34.989ZM7.87,25.457h0A24.361,24.361,0,0,0,9.55,31.414a20.317,20.317,0,0,1,1.571,5.761c.162,2.9-.672,5.751-1.556,8.767C8.522,49.5,7.444,53.183,7.871,57.355A25.677,25.677,0,0,0,9.4,63.22a20.577,20.577,0,0,1,1.431,5.855A20.716,20.716,0,0,1,9.54,76.389a58.019,58.019,0,0,1-2.4-7.7,51.913,51.913,0,0,1-1.5-12.633V7.831A2.176,2.176,0,0,1,7.81,5.658h3.312v0c.333,2.995-.577,6-1.542,9.191C8.559,18.227,7.5,21.718,7.87,25.457ZM23.347,76.783a23.853,23.853,0,0,0,1.486-5.872,23.151,23.151,0,0,0-1.512-9.841,23.059,23.059,0,0,1-1.442-6.686c-.122-3.356.8-6.667,1.7-9.869.961-3.441,1.869-6.691,1.559-9.945a24.117,24.117,0,0,0-1.684-6.064,19.387,19.387,0,0,1-1.572-6.02A25.711,25.711,0,0,1,23.4,14.912a34.906,34.906,0,0,0,1.875-9.254h4.2a30.492,30.492,0,0,1-1.593,7.355c-1.017,3.377-2.07,6.869-1.7,10.609a24.376,24.376,0,0,0,1.681,5.967,20.415,20.415,0,0,1,1.568,5.754c.16,2.9-.673,5.749-1.556,8.763-1.042,3.562-2.12,7.244-1.692,11.418a25.7,25.7,0,0,0,1.526,5.868,20.606,20.606,0,0,1,1.429,5.846A22.143,22.143,0,0,1,27.673,75.1a23.477,23.477,0,0,0-1.5,7.53,37.615,37.615,0,0,0,1.912,9.915c.988,3.439,1.923,6.692,1.651,9.678-1.371-1.089-2.739-2.248-4.073-3.45l-.506-.466a58.99,58.99,0,0,0-1.6-6.524c-.89-3.107-1.731-6.042-1.682-8.779A20.846,20.846,0,0,1,23.347,76.783Zm9.375,15.541a34.353,34.353,0,0,1-1.831-10.061,22.262,22.262,0,0,1,1.47-6.661,23.417,23.417,0,0,0,1.486-6.53,22.044,22.044,0,0,0-1.492-8.323,24.85,24.85,0,0,1-1.465-6.376c-.252-3.484.714-6.864,1.648-10.133.876-3.065,1.7-5.96,1.6-8.923a20.951,20.951,0,0,0-1.619-6.4,23.245,23.245,0,0,1-1.632-6.081c-.334-4,.7-7.188,1.711-10.273a28.106,28.106,0,0,0,1.62-6.9H89.833a2.175,2.175,0,0,1,2.173,2.173V56.109a50.718,50.718,0,0,1-1.489,12.542A57.027,57.027,0,0,1,86.16,80.828a52.039,52.039,0,0,1-8.966,12.858,89.8,89.8,0,0,1-11.043,9.891,66.021,66.021,0,0,1-9.041,5.743,36.948,36.948,0,0,1-8.29,3.306,37.075,37.075,0,0,1-8.332-3.331,63.556,63.556,0,0,1-6.72-4.08,10.868,10.868,0,0,0,.66-3.148C34.585,98.78,33.68,95.644,32.722,92.324Z"/><path class="b" d="M78.677,63.884c-.729.123-.775,1.131-1.29,1.237-.368.075-.963-.688-1.237-.855A5.078,5.078,0,0,1,74.573,63.2,7.9,7.9,0,0,1,72.6,59.622c-.064-.592-.071-1.191-.114-1.778s1.575.079,1.8.128a4.745,4.745,0,0,0,4.193-.942c1.607-1.219,1.457-2.577,1.1-4.387-.534-2.668-.059-8.21,4.063-6.249a1.856,1.856,0,0,0-1.883-1.685c-1.021-.07-1.857.949-2.356,1.708-.167.247-.167,1.975-.82,1.7-.67-.279-.485-2.047-.371-2.612.41-2.116,2.616-2.964,4.226-4.048,1.5-1.011,2.674-3.293.37-4.285-.128,1.327-.133,1.912-1.212,2.806s-2.611.846-3.649,1.829a1.942,1.942,0,0,0-.67,1.97c.1.252.6.952.417,1.253-.48.768-1.875-2.24-1.916-2.588-.437-3.459,4.076-4.559,6.175-6.074,1.2-.869,2.235-1.626,2.355-3.212.085-1.052-.625-2.715-1.834-2.852-.03,0,.222,1.61.235,1.791a2.764,2.764,0,0,1-.5,1.932c-.734.981-2.043,1.244-3.13,1.648-1.209.446-2.506.654-3.432,1.616a4.586,4.586,0,0,0-1.01,2.144c-.093.364-.178,3.322-.924,1.526a7.087,7.087,0,0,1,.312-3.005,11.28,11.28,0,0,1,2.8-3.625,29.756,29.756,0,0,0,3.837-4.166,7.011,7.011,0,0,0,1.373-3.7c-.006-2.217-2.8-4.414-4.956-4.075a5.611,5.611,0,0,0-4.124,2.174,4.752,4.752,0,0,0-1.057,2.522,10.417,10.417,0,0,0,.629,2.46c.311,1.287,1.594,3.729-.378,4.453.484.781,1.568.257,2.14-.166,2.149-1.59,1.715-3.6,1.189-5.894-.331-1.44-.514-2.872,1.041-3.631A2.6,2.6,0,0,1,80.082,25.4c1.556,2.709-1.252,5.7-3.034,7.44-1.919,1.865-4.18,3.624-4.889,6.3-.773,2.929.958,5.805,2.691,7.995.372.469,1.779,2.156,2.124,2.7.87,1.37,1.931,3.114,1.3,4.77-1.092,2.846-5.119,2.354-6.673.356-.1-.127-.184-.266-.278-.4l-.017-.021-.03-.046c-.213-.3-.418-.612-.613-.933-.1-.159-.192-.319-.287-.481-.057-.1-.116-.2-.172-.294-.42-.732-.8-1.455-1.133-2.124a33.533,33.533,0,0,0-2.051-4.007,6.911,6.911,0,0,1-1.516,2.446c-1.319,1.244,1,1.864.441,2.783-.508.835-2.581-.409-2.942-.864a3.574,3.574,0,0,1-.787-1.523c-.034-.18.064-1.154-.071-1.228a21.851,21.851,0,0,0-1.888,2.06c-.907,1.292.228,1.743,1.276,2.268,2.247,1.125,4.291,2.547,4.074,5.259a10.61,10.61,0,0,0-.11,3.594c.188.6.471.711.789,1.182.416.612-.675.207-.736.207-1.267-.059-1.029,1.938-1.041,2.614-.022,1.451-.834,1.8-1.907,2.458.021-.013.045.051.045.071.846,1.5,2.855-2.406,3.035-2.817.226-.572.7-.393.935.05.208.4-.148.444.3.91a5.946,5.946,0,0,0,1.068.821c1.589,1.031,3.569,1.628,4.893,3.058a3.606,3.606,0,0,1-.129,4.377c-1.271,1.392-2.773.427-4.337.752-.576.119-.688,1.5-.381,1.941.468.7,1.284.677,1.095,1.806-.4,2.357,1.461-.677,2.085-1.144.453-.356,1.2-.8,1.785-.462.535.312-.742,1.553-.962,1.823a12.722,12.722,0,0,1,1.127.761,1.846,1.846,0,0,1,.463-1.026.292.292,0,0,1,.038-.032.839.839,0,0,1,.128-.106c.6-.34.514.1.843.374.2.166.732.255.988.406.656.369,0-1.046.011-1.106.112-1.148,2.43-1.688,1.889-2.943-.254-.6.318-.907.464-.3.114.489.876.531,1.239.4a4.272,4.272,0,0,1-1.109-1.052c-.312-.489-.2-.731.012-.932.01-.011.023-.018.033-.028.207-.181.489-.336.614-.622-.268-.416-1.461-.524-.33-.974.755-.3,1.642.023,2.332-.67-.668-.165-1.641.691-2.194-.307a7.016,7.016,0,0,0-.8-1.346c0-.009-.985-.862-.394-.835.782.043.929.915,1.654.776,1.4-.256,2.082-1.4,3.575-.7.5-2.627-4,.43-4.447-2.249-.148-.827.675-.844,1.345-.949,1.181-.18,1.114-1.256,1.318-2.171l-.005-.041A21.255,21.255,0,0,1,78.677,63.884Z"/><path class="b" d="M51.862,77.24c.816-.779.356-.782-.391-1.4-.492-.424-.636-.917-.074-1.325.49-.351,1.544.574,2.154.5.515-.066,1.358-.274,1.532-.854.062-.213.381-2.2.882-1.427.409.628,0,1.226.9,1.736a3.233,3.233,0,0,0,2.245.433c-.739-.534-1.884-1.129-.937-2.043.321-.3.027-1.024.219-1.436.281-.565.93-.632.544-1.159-.309-.423.222-.837.464-1.119-.133-.527.16-.82-.148-1.327-.455-.764-1.421-1.537-1.077-2.581a6.8,6.8,0,0,1,5.749-4.449c.144-.023.933.024.951-.2.06-.729-.358-.249-.829-.57-1.471-1,.722-1.581-1.045-5.642-1.2.06-2.049,1.087-2.782,1.957a5.184,5.184,0,0,1-2.63,1.713,8.815,8.815,0,0,0-2.691.841,8.411,8.411,0,0,0-1.561,1.228c-.394.427-.56,1.09-1.041,1.427-.6.432-.512.3-.7,1-.127.485-.089.97-.2,1.456a3.788,3.788,0,0,1-1.919,2.358,1.81,1.81,0,0,0,2.365-.636,8.626,8.626,0,0,0,.6-1.1c.167-.3.518-.089.441.206-.274,1.059.914,1.392,1.276,2.348a2.354,2.354,0,0,1-1.1,2.657c-.7.43-1.52.317-2.08.971-.489.567-1.4,1.852-2.281,1.117-.153-.142-.571-.351-.618-.591-.065-.375.11-1.024-.32-1.271-.384-.223-1.723,1.162-1.945,1.4.466.375,1.319.516,1.475,1.19.075.324-1.735-.557-2.148-.568a7.7,7.7,0,0,0-.511,2.034c.011.69,1.641.1,2.069.131.03.653-.565.541-1.008.729-.7.288.354,1.159.525,1.475.211.413.046,1.177.785.857.608-.258.5-1.076,1.021-1.458a3.443,3.443,0,0,1,1.786-.709c.752.043,1.065.566.452,1.1-.777.658.044.757.265,1.2.638-.179,1.037.473,1.307.9h0C52.212,77.963,51.469,77.616,51.862,77.24Z"/><path class="b" d="M53.119,54.428c.265-.064,1.754-.736,1.875-.249.1.341-.121.771.441.8.265.018.836-.131.885-.467.054-.413.6.211.686.249a1.493,1.493,0,0,0,1.563-.459A1.128,1.128,0,0,1,57.68,52.6c.361-.753.517-.517.055-1.318a8.291,8.291,0,0,1-.595-1.533,5.275,5.275,0,0,1-4,3.058c-1.353.24-4.448-.935-3.465-2.8a3.467,3.467,0,0,1,2.1-1.369l.032-.006c.07-.016.142-.034.208-.043,1.059-.151-.169.954-.2,1.122-.211,1.082,1.552.181,1.833-.079.32-.295.2-.868.139-1.242-.1-.566-.133-1.162-.267-1.72a1.09,1.09,0,0,0-.641.291c-.655.447-1.345.839-2,1.293A26.489,26.489,0,0,0,48.4,50.219q-.906.809-1.74,1.692c-.684.727-2.367,2.485-3.576,1.751-.325-.194-.814-1.392-1.036-1.392-.9-.018-.414.391-.788.992-.186.3-.552.355-.831.507.119.355.883.79.373,1.066a8.557,8.557,0,0,1-1.747.348c.186.39.41.8.186,1.225-.153.3.448.524.6.784.153.309.04.6.339.78a1.122,1.122,0,0,1,.6,1.189c-.16,1.218,1.611-.83,1.669-.887.5-.506,2.747-1.039,2.2.324-.171.441-.558.761-.213,1.258a1.871,1.871,0,0,1,1.389.229c1.2-.712.591-1.064.228-2.139-.126-.383,1.42-.365,1.784-.841.82-1.074.838.309.909,1.031.449-.036.634-.573.718-.928.187-.743,1.264.57,1.218-.142a1.765,1.765,0,0,1,.309-1.2c.3-.407.635.393.581.631-.111.573,1.477.53,1.94.69l.047.006C53.7,56.723,52.41,54.6,53.119,54.428Z"/><path class="b" d="M50,43.557a8.637,8.637,0,0,1,2.067-1.776C50.927,41,49,39.906,49.711,38.166c.321-.8,1.124.3,1.725.353a5.553,5.553,0,0,0,2.618-.245c-.238-.3-1.008-.442-1.351-.775a2.178,2.178,0,0,1-.6-2.307c.14-.439-2.114-1.815-2.6-2.293-1.072-1.049-2.663-2.565-2.439-4.22a2.48,2.48,0,0,1,.483-1.432,5.359,5.359,0,0,0,.233-2.046c-.5.245-1.12.471-1.564-.011-.546-.581-.439.582-.386.74a8.145,8.145,0,0,1,.617,1.971c.041.633-.67,1.345-.67.462a9.961,9.961,0,0,1-1.216-1.71c-.142-.24.094-2-.384-1.651-.291.213-.707-.021-.945.226-.23.224-.034.675-.143.963-.233.686-1.2.092-1.537-.091-.185.848-1.255,1.134-.51,2.025.775.921,2.008.61,2.785,1.575.828,1.048-.22,2.181-1.246,2.378-.247.05-.505.537-.3.761a1.594,1.594,0,0,1,.024,1.738,1.821,1.821,0,0,0,1.533-.226c.565-.355.256-.833.947-.839a8.393,8.393,0,0,1,.564,1.355,2.093,2.093,0,0,1-.146,2.168c-.548.937.553,2.371.378,3.413-.245,1.427-1.015,1.266-2.047.564-.274.216.682.815.821.853a1.407,1.407,0,0,0,1.845-1.157,18.16,18.16,0,0,1,.366-2.441c.427-1,1.248-.284.864.089-.953.949,1.429,2.579,1.152,3.75C48.479,42.53,49.619,43.532,50,43.557Z"/><path class="b" d="M63.665,54.652c.149.857.48,3.07,1.31,3.311A2.852,2.852,0,0,0,63.665,54.652Z"/><path class="b" d="M67.333,80.123c.336-.277,2.132-1.425,1.12-2.057-.224.319-.9.2-1.216.581A1.218,1.218,0,0,0,67.333,80.123Z"/><path class="b" d="M40.987,52.364c-.432-.7-2.291.125-2.435.788C38.792,53.152,41.682,53.525,40.987,52.364Z"/><path class="b" d="M47.038,25.022c.316-.077.768-.488.551-.843-.3-.491-.852-.533-1.383-.612C46.51,24.024,46.167,25.226,47.038,25.022Z"/><path class="b" d="M40.276,58.705c-.114-.566-1.768.568-1.261,1.5.013,0,.057.054.037.071C39.436,59.913,40.411,59.373,40.276,58.705Z"/><path class="b" d="M45.786,70.814c2.02-1.041-.3-1.541-.974-.5A1.251,1.251,0,0,1,45.786,70.814Z"/><path class="b" d="M45.186,60.354c-.335.747-1.532.541-1.8,1.045C44,62.711,46.27,60.345,45.186,60.354Z"/><path class="b" d="M40.923,26.331c.192-1.262-1.4-.408-1.694.173C39.663,26.475,40.816,26.954,40.923,26.331Z"/><path class="b" d="M72.292,79.824c-.781-.288-.824,1.22-.117,1.531C72.3,80.8,73.02,80.093,72.292,79.824Z"/><path class="b" d="M44.11,24.33c.551-1.056-1.018-1.154-1.544-.839C42.791,23.619,43.913,24.7,44.11,24.33Z"/><path class="b" d="M67.515,75.613c-.619-.079-1.117.824-.971,1.38-.021-.07.041-.018,0,0C67.294,76.7,67.741,76.556,67.515,75.613Z"/><path class="b" d="M51.336,78.544c.023-1.318-1.1-.024-1.429.233C50.184,78.9,51.322,79.185,51.336,78.544Z"/><path class="b" d="M43.181,73.749c.3-.21,1.9-.642,1.219-1.114C43.664,72.131,43.2,73.209,43.181,73.749Z"/><path class="b" d="M45.093,77.541a1.154,1.154,0,0,1,.7-.708C45.3,75.306,44.244,77.078,45.093,77.541Z"/><path class="b" d="M41.105,33.292c.293,1.882,1.834-.041,0,0Z"/><path class="b" d="M37.7,56.463c.259-.137,1.754-.037,1.008-.841C38.33,55.75,37.553,55.871,37.7,56.463Z"/><path class="b" d="M75.286,79.867c-.745-.645-1,.124-.6.728C74.888,80.352,75.081,80.105,75.286,79.867Z"/><path class="b" d="M58.354,29.89c-.3.055-.3,0-.418.073.035-.022-.018.126,0,0-.032.22-.121.7.279.652C58.261,30.373,58.309,30.13,58.354,29.89Z"/><path class="b" d="M59.166,32.723a.192.192,0,0,0,.3.006c-.066-.068-.142-.136-.215-.2C59.221,32.593,59.193,32.654,59.166,32.723Z"/><path class="b" d="M62.149,30.212c-1.549-.171-2.565.72-3.874,1.187a3.2,3.2,0,0,1-2.293.277,11,11,0,0,0-1.67-.88c.167,2.029,1.8,2.524,3.444,1.758.751-.352,1.346-.963,2.13-1.272.654-.26,2.2-.326,2.263-1.07"/><path class="b" d="M69.726,32.41c-.224-.8.121-1.72-.153-2.52-.085-.247-.537-.493-.526-.75.007-.349.677-.578.875-.823a3.684,3.684,0,0,1-.664-.069.837.837,0,0,1-.476-.364,4.69,4.69,0,0,1-.28-.535c-.084-.166-.165-.334-.241-.5-.024-.055-.34-.875-.263-.883-.363.038-1.555.573-1.564-.09,0-.3,1.426-.37,1.751-.59.45-.3.562-.7.011-.962a2.54,2.54,0,0,0-1.75-.144,2.689,2.689,0,0,0-1.277.957.19.19,0,0,1-.078.057c-.216.072-.26-.408-.237-.533a.88.88,0,0,1,.413-.526,2.559,2.559,0,0,1,.65-.311,3.583,3.583,0,0,0,.673-.221,2.792,2.792,0,0,0-2.181-.966,7.529,7.529,0,0,0-2.527.4c-.712.215-1.407.481-2.11.722-.357.122-.894.547-1.285.494-.067-.011-.118.371-.182.7a1.727,1.727,0,0,1-.05.222.626.626,0,0,1-.09.228.89.89,0,0,1-.129.121.665.665,0,0,1-.067.047c-.768.544-2.722,1-1.667,2.253.367.43.167.793.359,1.246.256.606,1.394.422,1.853.258.661-.233,3.132-1.418,3.633-.6a3.693,3.693,0,0,1,.206,3.635c-.612,1.079-2.316.661-3.3,1.017.053.578.046,1.772.769,1.97.772.216,1.918-.729,2.382-1.247.112-.133,1.072-1.5,1.252-.892.206.717-.934,2-1.365,2.476a3.162,3.162,0,0,1-2.208.852c-.918-.02-1.63-.5-2.5-.363-.023,0-.046.013-.069.018a1.993,1.993,0,0,0-.318.083c-1.607.582-3.8.418-3.3-1.845a1.535,1.535,0,0,0-.978,2.375,2.339,2.339,0,0,0,1.447.928.763.763,0,0,0,.1.006h.15l.118,0h.044c.331.009.717.064.668.391-.068.473-1.269.862-1.691.926a4.845,4.845,0,0,1-3.3-.508c-.094,1.226,1.3,3.162,2.745,2.952.4-.054.8-.165,1.2-.225a.962.962,0,0,1,.751.068c.185.141.428.661.163.83a.41.41,0,0,1-.236.037,6.78,6.78,0,0,0-2.471.157,4.172,4.172,0,0,0-1.975,1.572,3.25,3.25,0,0,1-1.725,1.3.912.912,0,0,1-1.077-.5,5.958,5.958,0,0,1-.529-1.3c-1.026,1.128-.062,2.647.918,3.419a3.22,3.22,0,0,0,1.756.765,5.589,5.589,0,0,0,2.65-.888c.532-.28,1.039-.6,1.548-.924.351-.22.985-.783,1.414-.762a.407.407,0,0,1,.387.331.445.445,0,0,1-.189.38c-.277.213-.667.246-.942.47-.94.764-.526,1.689-.384,2.714.256,1.891-2.78,2.755-2.915.43-2,1.107-1.25,2.325.626,2.9,1.37.43,3.482-.69,4.223-1.833a10.286,10.286,0,0,0,.661-1.507c.084-.187.823-1.877,1.127-1.335.331.591-.531,1.386-.349,2.03a4.623,4.623,0,0,0,1.762,2.787c-.2-.106.1-1.452.17-1.648a3.888,3.888,0,0,1,1.088-1.523A8.774,8.774,0,0,0,62.8,45.9c.271-.677.582.22.415.656a6.894,6.894,0,0,0-.482,2.065,2.391,2.391,0,0,0,2.5,2.764c-.288-.459-.651-.739-.73-1.3-.134-.99.62-1.388,1.125-2.087a3.364,3.364,0,0,0,.766-2.008c-.022-.39-.186-.755-.216-1.14-.024-.313.038-2.059.633-1.865a.075.075,0,0,1,.033.035c.206.223-.147,1.416-.1,1.777a3.472,3.472,0,0,0,1.108,2.01c.376.306,1.473.6,1.72-.026a4.3,4.3,0,0,0-.637-.2,1.66,1.66,0,0,1-.8-2.067c.13-.549.428-1.059.54-1.6.107-.475-.867-1.143-.645-1.472.183-.274,1.4.992,1.955.731a3.784,3.784,0,0,1-.636-2.5c.227-.894.414-1.8.592-2.709.1-.556.546-1.882-.242-2.186-.261-.1-.912-.208-1.052-.507-.08-.174.01-.478.241-.371.637.3,1.472.6,2.069.014C71.164,33.692,69.865,32.872,69.726,32.41ZM61.1,26.155c-.269.248-1.4-.108-1.458-.711C59.609,25.089,61.528,25.764,61.1,26.155Z"/><path class="c" d="M156.587,17.9h2.882a3.073,3.073,0,0,1,2.207.635,2.557,2.557,0,0,1,.827,2.272,3.737,3.737,0,0,1-1.179,2.248,3.523,3.523,0,0,1-1.657.774l2.128,3.465h-2.108L157.639,23.7h-.023l-.441,3.593h-1.74Zm1.19,4.492h1.115a1.659,1.659,0,0,0,1.855-1.444c.064-.522-.145-1.423-1.5-1.423h-1.116Z"/><path class="c" d="M164.867,17.9h5.051l-.2,1.625h-3.312l-.283,2.3H169.3l-.2,1.625h-3.173l-.272,2.222h3.313l-.2,1.625h-5.052Zm1.243-1.853,3.064-1.688.521,1.332-3.082,1.524Z"/><path class="c" d="M175.319,22.506h6.126l-.024.2a5.734,5.734,0,0,1-5.559,4.772,4.291,4.291,0,0,1-4.449-4.887,5.782,5.782,0,0,1,5.6-4.885,4.217,4.217,0,0,1,4.193,2.944h-2.081a2.586,2.586,0,0,0-2.35-1.321,3.761,3.761,0,0,0-3.623,3.274,2.81,2.81,0,0,0,2.912,3.251,3.576,3.576,0,0,0,2.99-1.727H175.12Z"/><path class="c" d="M184.171,17.9h1.737l-1.152,9.394h-1.738Z"/><path class="c" d="M193.117,17.709a4.243,4.243,0,0,1,4.309,4.91,5.686,5.686,0,0,1-5.51,4.862,4.234,4.234,0,0,1-4.315-4.862A5.7,5.7,0,0,1,193.117,17.709Zm-1,8.148a3.753,3.753,0,0,0,3.573-3.251,2.793,2.793,0,0,0-2.773-3.274,3.748,3.748,0,0,0-3.574,3.274A2.792,2.792,0,0,0,192.116,25.857Z"/><path class="c" d="M199.725,17.869h1.946l3,6.719h.028l.825-6.719h1.709L206.1,27.107h-1.912l-3.032-6.716h-.025l-.825,6.716H198.59Z"/><path class="c" d="M111.622,28.189h4.884l7.514,16.847h.062l2.069-16.847h4.291L127.6,51.36H122.8L115.2,34.517h-.062L113.066,51.36h-4.29Z"/><path class="c" d="M131.944,42.551A10.988,10.988,0,0,1,142.521,33.1a8.084,8.084,0,0,1,8.2,9.383,10.689,10.689,0,0,1-10.51,9.445A8.18,8.18,0,0,1,131.944,42.551Zm14.535.033c.394-3.214-1.793-5.6-4.434-5.6a6.294,6.294,0,0,0-5.868,5.567c-.409,3.339,1.838,5.5,4.51,5.5A6.137,6.137,0,0,0,146.479,42.584Z"/><path class="c" d="M170.213,33.707,168.047,51.36h-3.878l.219-1.782h-.065a5.886,5.886,0,0,1-4.838,2.353,6.127,6.127,0,0,1-5.573-2.8c-1.074-1.877-.723-4.738-.543-6.2l1.133-9.224h4.23l-1.1,9c-.175,1.432-.656,5.343,3.034,5.343,2.672,0,3.871-2.514,4.214-5.312l1.111-9.033Z"/><path class="c" d="M172.406,33.707h4.578l2.823,11.7h.094l5.443-11.7h4.645L180.667,51.36h-3.306Z"/><path class="c" d="M193.928,44.426a4.327,4.327,0,0,0,4.421,3.626,4.99,4.99,0,0,0,4.349-2.26h4.454a10.7,10.7,0,0,1-9.28,6.139,8.037,8.037,0,0,1-8.17-9.347c.612-5,5.023-9.577,10.462-9.577,5.6,0,8.537,4.836,7.99,9.289a10.507,10.507,0,0,1-.516,2.13Zm10.055-3.4a4.081,4.081,0,0,0-4.265-4.133,5.944,5.944,0,0,0-5.5,4.133Z"/><path class="c" d="M212.919,27.822h4.23L214.26,51.36h-4.23Z"/><path class="c" d="M220.871,27.822h4.23l-2.89,23.538h-4.23Z"/><path class="c" d="M230.5,44.426a4.332,4.332,0,0,0,4.424,3.626,4.994,4.994,0,0,0,4.349-2.26h4.452a10.693,10.693,0,0,1-9.278,6.139,8.04,8.04,0,0,1-8.173-9.347c.613-5,5.025-9.577,10.465-9.577,5.6,0,8.535,4.836,7.988,9.289a10.575,10.575,0,0,1-.516,2.13Zm10.057-3.4A4.08,4.08,0,0,0,236.3,36.89a5.943,5.943,0,0,0-5.5,4.133Z"/><path class="c" d="M217.186,59.715a2.95,2.95,0,0,1-2.849,2.541,2.2,2.2,0,0,1-2.228-2.541,2.953,2.953,0,0,1,2.851-2.535A2.2,2.2,0,0,1,217.186,59.715Z"/><path class="c" d="M121.363,58.259h3.266l6.464,24.451h-4.61L124.846,76.4h-8.093l-3.188,6.308h-4.611Zm-2.681,13.879h5.189l-1.643-7.5h-.062Z"/><path class="c" d="M152.612,64.372l-3.374,27.1h-4.06l1.337-10.514a7.581,7.581,0,0,1-5.45,2.345c-5.131,0-7.95-4.888-7.329-9.941.644-5.257,5.12-9.618,9.762-9.618a5.058,5.058,0,0,1,5.042,2.943h.061l.284-2.315Zm-10.563,14.9c2.869,0,5.226-2.776,5.587-5.714.353-2.877-1.212-5.785-4.206-5.785-2.9,0-5.277,2.676-5.646,5.686C137.331,77.16,139.514,79.275,142.049,79.275Z"/><path class="c" d="M170.959,64.372,168.707,82.71h-3.723l.229-1.852h-.062a5.592,5.592,0,0,1-4.667,2.445,5.722,5.722,0,0,1-5.322-2.906c-1.014-1.948-.647-4.921-.462-6.441l1.176-9.584h4.063l-1.149,9.353c-.183,1.488-.682,5.55,2.861,5.55,2.565,0,3.741-2.612,4.1-5.517l1.151-9.386Z"/><path class="c" d="M182.748,68.273h-1.984l.477-3.9h1.986l.751-6.113h4.059l-.751,6.113h2.442l-.479,3.9h-2.44L185.036,82.71h-4.058Z"/><path class="c" d="M206.532,82.71h-3.727l.279-2.281a9.283,9.283,0,0,1-6.277,2.874c-4.365,0-7.782-3.764-7.034-9.877.691-5.615,4.977-9.682,9.679-9.682a6.11,6.11,0,0,1,5.258,2.943h.063l.283-2.315h3.727Zm-6.961-14.934c-3.329,0-5.421,3.107-5.758,5.851-.381,3.1,1.443,5.648,4.345,5.648,2.809,0,5.241-2.379,5.657-5.78C204.281,69.691,201.986,67.776,199.571,67.776Z"/><path class="c" d="M219.8,64.372h3.756l-.193,1.586a7.057,7.057,0,0,1,4.912-2.214,5.837,5.837,0,0,1,4.788,2.544c1.308,2.015.933,5.09.757,6.511l-1.217,9.911h-4.06l1.109-9.052c.189-1.52.723-5.882-2.7-5.882a3.922,3.922,0,0,0-2.976,1.619c-.873,1.123-1.109,3.037-1.3,4.594l-1.071,8.721h-4.06Z"/><path class="c" d="M240.634,75.509a4.238,4.238,0,0,0,4.211,3.766,4.744,4.744,0,0,0,4.195-2.346h4.277c-1.382,3.3-5,6.374-8.965,6.374-5.04,0-8.413-4.361-7.757-9.712.638-5.186,4.915-9.946,10.136-9.946,5.377,0,8.149,5.023,7.581,9.652a11.431,11.431,0,0,1-.517,2.212Zm9.687-3.536c-.1-2.941-2.035-4.3-4.051-4.3a5.82,5.82,0,0,0-5.323,4.3Z"/><polygon class="c" points="172.335 82.701 176.395 82.701 178.646 64.363 174.586 64.363 172.335 82.701"/><path class="c" d="M179.99,59.464a3.122,3.122,0,0,1-3.013,2.685,2.325,2.325,0,0,1-2.355-2.685,3.123,3.123,0,0,1,3.013-2.683A2.324,2.324,0,0,1,179.99,59.464Z"/><polygon class="c" points="209.816 82.701 213.88 82.701 216.129 64.363 212.069 64.363 209.816 82.701"/><path class="c" d="M247.366,42.654a2.324,2.324,0,0,1,2.372-1.784h4.111a1.73,1.73,0,0,1,1.931,1.784,2.324,2.324,0,0,1-2.372,1.784H249.3A1.73,1.73,0,0,1,247.366,42.654Z"/><path class="b" d="M64.96,58.592l-.012-.027a.434.434,0,0,0-.156-.183.683.683,0,0,0-1.051.475.857.857,0,0,0,.859.919c.269.028.351-.22.381-.481v0a1.933,1.933,0,0,0,.03-.462A1.375,1.375,0,0,0,64.96,58.592Z"/></svg>